<mxfile host="65bd71144e">
    <diagram id="lvHK2FeL_BiQgzmQ8vDj" name="Page-1">
        <mxGraphModel dx="755" dy="172" grid="1" gridSize="10" guides="1" tooltips="1" connect="1" arrows="1" fold="1" page="1" pageScale="1" pageWidth="850" pageHeight="1100" background="#E6E6E6" math="0" shadow="0">
            <root>
                <mxCell id="0"/>
                <mxCell id="1" parent="0"/>
                <mxCell id="2" value="&lt;font&gt;api gateway&lt;br&gt;&lt;/font&gt;" style="sketch=0;points=[[0,0,0],[0.25,0,0],[0.5,0,0],[0.75,0,0],[1,0,0],[0,1,0],[0.25,1,0],[0.5,1,0],[0.75,1,0],[1,1,0],[0,0.25,0],[0,0.5,0],[0,0.75,0],[1,0.25,0],[1,0.5,0],[1,0.75,0]];outlineConnect=0;fontColor=#000000;gradientColor=#FF4F8B;gradientDirection=north;fillColor=#BC1356;strokeColor=#ffffff;dashed=0;verticalLabelPosition=bottom;verticalAlign=top;align=center;html=1;fontSize=12;fontStyle=0;aspect=fixed;shape=mxgraph.aws4.resourceIcon;resIcon=mxgraph.aws4.api_gateway;labelBackgroundColor=#E6E6E6;" parent="1" vertex="1">
                    <mxGeometry x="280" y="280" width="78" height="78" as="geometry"/>
                </mxCell>
                <mxCell id="3" value="&lt;font&gt;connect&lt;/font&gt;" style="sketch=0;points=[[0,0,0],[0.25,0,0],[0.5,0,0],[0.75,0,0],[1,0,0],[0,1,0],[0.25,1,0],[0.5,1,0],[0.75,1,0],[1,1,0],[0,0.25,0],[0,0.5,0],[0,0.75,0],[1,0.25,0],[1,0.5,0],[1,0.75,0]];outlineConnect=0;fontColor=#000000;gradientColor=#F78E04;gradientDirection=north;fillColor=#D05C17;strokeColor=#ffffff;dashed=0;verticalLabelPosition=bottom;verticalAlign=top;align=center;html=1;fontSize=12;fontStyle=0;aspect=fixed;shape=mxgraph.aws4.resourceIcon;resIcon=mxgraph.aws4.lambda;labelBackgroundColor=#E6E6E6;" parent="1" vertex="1">
                    <mxGeometry x="480" y="120" width="78" height="78" as="geometry"/>
                </mxCell>
                <mxCell id="4" value="&lt;font&gt;disconnect&lt;/font&gt;" style="sketch=0;points=[[0,0,0],[0.25,0,0],[0.5,0,0],[0.75,0,0],[1,0,0],[0,1,0],[0.25,1,0],[0.5,1,0],[0.75,1,0],[1,1,0],[0,0.25,0],[0,0.5,0],[0,0.75,0],[1,0.25,0],[1,0.5,0],[1,0.75,0]];outlineConnect=0;fontColor=#000000;gradientColor=#F78E04;gradientDirection=north;fillColor=#D05C17;strokeColor=#ffffff;dashed=0;verticalLabelPosition=bottom;verticalAlign=top;align=center;html=1;fontSize=12;fontStyle=0;aspect=fixed;shape=mxgraph.aws4.resourceIcon;resIcon=mxgraph.aws4.lambda;labelBackgroundColor=#E6E6E6;" parent="1" vertex="1">
                    <mxGeometry x="480" y="440" width="78" height="78" as="geometry"/>
                </mxCell>
                <mxCell id="5" value="&lt;font&gt;default&lt;/font&gt;" style="sketch=0;points=[[0,0,0],[0.25,0,0],[0.5,0,0],[0.75,0,0],[1,0,0],[0,1,0],[0.25,1,0],[0.5,1,0],[0.75,1,0],[1,1,0],[0,0.25,0],[0,0.5,0],[0,0.75,0],[1,0.25,0],[1,0.5,0],[1,0.75,0]];outlineConnect=0;fontColor=#000000;gradientColor=#F78E04;gradientDirection=north;fillColor=#D05C17;strokeColor=#ffffff;dashed=0;verticalLabelPosition=bottom;verticalAlign=top;align=center;html=1;fontSize=12;fontStyle=0;aspect=fixed;shape=mxgraph.aws4.resourceIcon;resIcon=mxgraph.aws4.lambda;labelBackgroundColor=#E6E6E6;" parent="1" vertex="1">
                    <mxGeometry x="480" y="280" width="78" height="78" as="geometry"/>
                </mxCell>
                <mxCell id="6" value="" style="edgeStyle=orthogonalEdgeStyle;html=1;endArrow=none;elbow=vertical;startArrow=block;startFill=1;strokeColor=#545B64;rounded=0;entryX=0.5;entryY=0;entryDx=0;entryDy=0;entryPerimeter=0;" parent="1" source="10" target="2" edge="1">
                    <mxGeometry width="100" relative="1" as="geometry">
                        <mxPoint x="140" y="480" as="sourcePoint"/>
                        <mxPoint x="240" y="480" as="targetPoint"/>
                    </mxGeometry>
                </mxCell>
                <mxCell id="7" value="" style="edgeStyle=orthogonalEdgeStyle;html=1;endArrow=none;elbow=vertical;startArrow=block;startFill=1;strokeColor=#545B64;rounded=0;entryX=0.5;entryY=1;entryDx=0;entryDy=0;entryPerimeter=0;exitX=0;exitY=0.5;exitDx=0;exitDy=0;exitPerimeter=0;" parent="1" source="4" target="2" edge="1">
                    <mxGeometry width="100" relative="1" as="geometry">
                        <mxPoint x="420" y="490" as="sourcePoint"/>
                        <mxPoint x="410" y="470" as="targetPoint"/>
                    </mxGeometry>
                </mxCell>
                <mxCell id="8" value="" style="edgeStyle=orthogonalEdgeStyle;html=1;endArrow=none;elbow=vertical;startArrow=block;startFill=1;strokeColor=#545B64;rounded=0;entryX=1;entryY=0.5;entryDx=0;entryDy=0;entryPerimeter=0;exitX=0;exitY=0.5;exitDx=0;exitDy=0;exitPerimeter=0;" parent="1" source="5" target="2" edge="1">
                    <mxGeometry width="100" relative="1" as="geometry">
                        <mxPoint x="410" y="340" as="sourcePoint"/>
                        <mxPoint x="550" y="380" as="targetPoint"/>
                    </mxGeometry>
                </mxCell>
                <mxCell id="10" value="&lt;font&gt;authorizer&lt;/font&gt;" style="sketch=0;points=[[0,0,0],[0.25,0,0],[0.5,0,0],[0.75,0,0],[1,0,0],[0,1,0],[0.25,1,0],[0.5,1,0],[0.75,1,0],[1,1,0],[0,0.25,0],[0,0.5,0],[0,0.75,0],[1,0.25,0],[1,0.5,0],[1,0.75,0]];outlineConnect=0;fontColor=#000000;gradientColor=#F78E04;gradientDirection=north;fillColor=#D05C17;strokeColor=#ffffff;dashed=0;verticalLabelPosition=bottom;verticalAlign=top;align=center;html=1;fontSize=12;fontStyle=0;aspect=fixed;shape=mxgraph.aws4.resourceIcon;resIcon=mxgraph.aws4.lambda;labelBackgroundColor=#E6E6E6;" parent="1" vertex="1">
                    <mxGeometry x="280" y="120" width="78" height="78" as="geometry"/>
                </mxCell>
                <mxCell id="11" value="" style="edgeStyle=orthogonalEdgeStyle;html=1;endArrow=none;elbow=vertical;startArrow=block;startFill=1;strokeColor=#545B64;rounded=0;fontColor=#FFFFFF;exitX=0;exitY=0.5;exitDx=0;exitDy=0;exitPerimeter=0;entryX=1;entryY=0.5;entryDx=0;entryDy=0;entryPerimeter=0;" parent="1" source="3" target="10" edge="1">
                    <mxGeometry width="100" relative="1" as="geometry">
                        <mxPoint x="160" y="250" as="sourcePoint"/>
                        <mxPoint x="330" y="280" as="targetPoint"/>
                    </mxGeometry>
                </mxCell>
                <mxCell id="13" value="" style="edgeStyle=orthogonalEdgeStyle;html=1;endArrow=none;elbow=vertical;startArrow=block;startFill=1;strokeColor=#545B64;rounded=0;fontColor=#FFFFFF;entryX=1;entryY=0.5;entryDx=0;entryDy=0;exitX=0;exitY=0.25;exitDx=0;exitDy=0;exitPerimeter=0;" parent="1" source="2" target="22" edge="1">
                    <mxGeometry width="100" relative="1" as="geometry">
                        <mxPoint x="110" y="420" as="sourcePoint"/>
                        <mxPoint x="210" y="420" as="targetPoint"/>
                    </mxGeometry>
                </mxCell>
                <mxCell id="16" value="" style="sketch=0;points=[[0,0,0],[0.25,0,0],[0.5,0,0],[0.75,0,0],[1,0,0],[0,1,0],[0.25,1,0],[0.5,1,0],[0.75,1,0],[1,1,0],[0,0.25,0],[0,0.5,0],[0,0.75,0],[1,0.25,0],[1,0.5,0],[1,0.75,0]];outlineConnect=0;fontColor=#232F3E;gradientColor=#60A337;gradientDirection=north;fillColor=#277116;strokeColor=#ffffff;dashed=0;verticalLabelPosition=bottom;verticalAlign=top;align=center;html=1;fontSize=12;fontStyle=0;aspect=fixed;shape=mxgraph.aws4.resourceIcon;resIcon=mxgraph.aws4.s3;labelBackgroundColor=#E6E6E6;" parent="1" vertex="1">
                    <mxGeometry x="680" y="280" width="78" height="78" as="geometry"/>
                </mxCell>
                <mxCell id="17" value="" style="edgeStyle=orthogonalEdgeStyle;html=1;endArrow=none;elbow=vertical;startArrow=block;startFill=1;strokeColor=#545B64;rounded=0;fontColor=#000000;exitX=0.5;exitY=0;exitDx=0;exitDy=0;exitPerimeter=0;entryX=1;entryY=0.5;entryDx=0;entryDy=0;entryPerimeter=0;" parent="1" source="16" target="3" edge="1">
                    <mxGeometry width="100" relative="1" as="geometry">
                        <mxPoint x="610" y="190" as="sourcePoint"/>
                        <mxPoint x="710" y="190" as="targetPoint"/>
                    </mxGeometry>
                </mxCell>
                <mxCell id="19" value="put object" style="edgeLabel;html=1;align=center;verticalAlign=middle;resizable=0;points=[];fontColor=#000000;labelBackgroundColor=none;" parent="17" vertex="1" connectable="0">
                    <mxGeometry x="0.3463" y="2" relative="1" as="geometry">
                        <mxPoint x="23" y="-11" as="offset"/>
                    </mxGeometry>
                </mxCell>
                <mxCell id="18" value="" style="edgeStyle=orthogonalEdgeStyle;html=1;endArrow=none;elbow=vertical;startArrow=block;startFill=1;strokeColor=#545B64;rounded=0;fontColor=#000000;exitX=0.5;exitY=1;exitDx=0;exitDy=0;exitPerimeter=0;labelBackgroundColor=none;entryX=1;entryY=0.5;entryDx=0;entryDy=0;entryPerimeter=0;" parent="1" source="16" target="4" edge="1">
                    <mxGeometry width="100" relative="1" as="geometry">
                        <mxPoint x="640" y="490" as="sourcePoint"/>
                        <mxPoint x="730" y="480" as="targetPoint"/>
                    </mxGeometry>
                </mxCell>
                <mxCell id="20" value="delete object" style="edgeLabel;html=1;align=center;verticalAlign=middle;resizable=0;points=[];fontColor=#000000;labelBackgroundColor=none;" parent="18" vertex="1" connectable="0">
                    <mxGeometry x="0.214" y="1" relative="1" as="geometry">
                        <mxPoint x="-4" y="-10" as="offset"/>
                    </mxGeometry>
                </mxCell>
                <mxCell id="21" value="&lt;font style=&quot;font-size: 34px;&quot;&gt;High Level Architecture&lt;/font&gt;" style="text;html=1;strokeColor=none;fillColor=none;align=left;verticalAlign=middle;whiteSpace=wrap;rounded=0;labelBackgroundColor=none;fontColor=#000000;" parent="1" vertex="1">
                    <mxGeometry x="40" y="40" width="390" height="70" as="geometry"/>
                </mxCell>
                <mxCell id="22" value="" style="shape=image;verticalLabelPosition=bottom;labelBackgroundColor=default;verticalAlign=top;aspect=fixed;imageAspect=0;image=data:image/png,iVBORw0KGgoAAAANSUhEUgAAAz0AAAJRCAYAAABvKdngAAAAAXNSR0IArs4c6QAAAARnQU1BAACxjwv8YQUAAAAJcEhZcwAADsMAAA7DAcdvqGQAAJ7aSURBVHhe7N17eFTloS/+75qZZCYXGEhgJuEyASThIok3wKqxWrnoY7D7acBTG2y3QlsJ6qmg7ZZ6joD7tNDueuluCe5jFdtKtKdCfy2krZhYLUFKwa0kKJAJkEwgIQO5TK5zf39/rDWTmZVJMgkhhOH7eZ7FE9Z6Z613XWayvvO+640khBAgIiIiIiKKURr1DCIiIiIioljC0ENERERERDGNoYeIiIiIiGIaQw8REREREcU0hh4iIiIiIoppDD1ERERERBTTpCszZLUL9qOl2LW7DNZOAKZs5OcXIHemXl0wJtiPluAwFiDvBpN6ERERERERXWYjH3ocR7C1YBle+QTQm0wwagE022F3AZbV7+L9H+XCqH7NVcOOyj2Hgfl5yE7vmVv2ZBpWYifO/2JRaGEiIiIiIhoBIxx67ChenoP1x3Kx5Y878ejsQMuOC7Z31mLJUyWYv/0kdn7tao09ZVibthL4zXkULe2Z63LY4YARJmNstmQREREREY1mIxt6DmxAxvJi5P2mCkVL1QHAgd3fmoW1TVtQUfIoAh3BXGfK8MabJUo3uPl49NsFyE4JvMYF60elcGblwdJUjO1vHoEdJsx/pBAF8wLBKZoySsmQbRln5OHR1YtgCaumC7YP3sCOP1vhAGCa/yhWfS0bJj2AhkqUHNmN7d/ZDqx9HYU3AcY5i5E7Ux+xe9ul7xcREREREUVjRAcyOPLnYrhMhSjsFXgAwIi859/Fuy/mB7u3OfatRc5tK7H1QCMAJ2xvr8eSuUuwvTrwmkaUblyNrT9ZjzvXlMAOwGktxvrFC7H+A9cgyqi31Yjyn6zEwpy1KHMES6DsyRwsLNiKcjuAThuKn1mCnAXrUdYJoGo3NjxfjCMAjuzcgA3Pb8D28kYAQOWvVmP1ryr72NZQ94uIiIiIiKIiRoxT7PqmWZjX7FUviKxjl1hlNosFmw8LZ2Cep1XsXWMR5vlbRJUQQohaUXSXWZjvellUeQKFWsXOb5iF+Zu7lNdFUUbZVu7P5bUKIYTwVImX7zIL86NyGefuVcJsXiA2HQnWRojWXaLAbBa522qVGaWi0GwWhe/1FBFCiNInzML8RKn8n2HbLyIiIiIiikafLT0HDx7EmjVrMGvWLMTFxUGSpAGn/jWi0QZAZ1AviOxQOUqQi6fWzEewXUhnRN4jBdDXlaG0rqdo5v/IR6Yu8D8jcnMzAVsj5HaWKMocKkcJFmHd6syeF+gyUfDtXODP5SgHUP5RCXDHUyi8JaSVypiPl0t2omiFuWfeQIZ5v/qiPjecOHHixIkTJ06cOF0NU1xcHGbNmoU1a9bg4MGD6tvcIYkYetasWYOHHnoIM2bMwK5du9DV1QUhxIBT/yywzAHgcCCaDlq2E4cBmGBWj/JsssCCSlQeV82/BPK2yrD2ujSkpfVMOc+UA6hEVZ0NVZ8BmGQOPmsUYLplEbJNkbrrRTZS+6U+N5w4ceLEiRMnTpw4XQ1TV1cXdu3ahRkzZuChhx7CmjVr1Le6g9Yr9Nx3333w+Xyorq7GD37wA8ybNw9xcXHqYkOSnZ0J7CtFuVe9RGZ/awXSpqxFmQswjO2v9UQP4zA+zy9vKw9FFRWo6DW9i1XpBhhT1a8ampHcLyIiIiKiq01cXBzmzZuHH/zgB6iurobP58N9992nLjYoYaFnzZo1mDp1Kl577bVhCzqhLF9bhfnYjU1FVvUiwFuJN35eDixdjFw9YJo/HxaUoPRAeDH7ByWwYjEWzAuffylM2fNhQiWqGkwwmXom1B3G4c9scOpMWHCrBfiTOrDZsP3uNGQ8dyR0Zr9Gcr+IiIiIiK5mcXFxeO211zB16tRLavEJhp6DBw/iL3/5C4qKisJLDKf0R/Hy89mw/vhO3PlMCax2B1ydDthPlGHryhV4pS4bG/93vvysy+xVeOoOF3asWo3iE3I524GtWPncERhXFyI/Sb3yS3DDKjx7hw2vfFO1rbzV2HwEMALI/OZTyHXtwOrvFsPa7ILLYUP5j1dj8wkLCr85P7gqA4DKY5Ww2+1wdIZtRTaS+0VEREREFAOKiorwl7/8ZcjP+ARDz69//Ws8/vjjl6WFJ1Tm2r3452sFwDurcWfOLGRcNws5d6/EK1W52PLhXhROD5Q0oeCNvdh4y2Gsv1sut3D5K3A+/Dr2b+4JGcND2dY81bYe24n3f5AtF0kvwOslGzH/yHrcOTcDGbMWYkWRE4XF7+PZ2YH1LELhz/LgeGkJcnJysOzXtpBtBIzkfhERERERXf3i4uLw+OOP49e//rV6UVSCf5x01qxZ2LVrF+bNG6n+VS447MqgBnojTMZ+BgPodMDe6YLeaEJ/xYZFFNtyNdvh8OphNBl7RmAbiii2RUREREREwLFjx7B8+XKcPHlSvWhAwdATFxeHrq6uy97SQ0RERERENFgejweJiYnweDzqRQMKhh5JkqD8SERERERENOoMNbP0GrKaiIiIiIgoljD0EBERERFRTGPoISIiIiKimMbQQ0REREREMY2hh4iIiIiIYhpDDxERERERxTSGHiIiIiIiimkMPUREREREFNMYeoiIiIiIKKYx9BARERERUUxj6CEiIiIiopjG0ENERERERDGNoYeIiIiIiGIaQw8REREREcU0hh4iIiIiIoppDD1ERERERBTTGHqIiIiIiCimMfQQEREREVFMY+ghIiIiIqKYxtBDREREREQxjaGHiIiIiIhiGkMPERERERHFNIYeIiIiIiKKaQw9REREREQU0xh6iIiIiIgopjH0EBERERFRTGPoISIiIiKimMbQQ0REREREMU0SQggAkCQJyo+X5GSDH2/u9+Kfp3xwedVLaTTR64CF12nxyJ06zEpn/iUiIiKi0W2omWVYQ8/JBj/Wvuli2LnK6HVA0SN6Bh8iIiIiGtWGmlmG9S73zf1eBp6rkMsrnzsiIiIiolg0rKHnn6d86ll0leC5IyIiIqJYNayhh608Vy+eOyIiIiKKVcMaeoiIiIiIiEYbhh4iIiIiIoppDD1ERERERBTTGHqIiIiIiCimDevf6cn99271rBAaPHS/DrPiALT7sPmDntHCbrktDstMEtDpx/8t9aJBmZ9+Sxy+O0UCIHDyiAfvnAOQosFDC3W4O0ODZADuLj+OnfDipcP+4Pr6JuGW23R4aJYW6XoAPoHasz7s/qcXnzSry157yv93gnoWEREREdGoMdTMMoItPQLTMrRYkqPFklt0eChkyZIcnTJfi2Uh85ffrMyfrcGYcwCy4vHWY3o8sUCLeSYJ00wSsqZpkX+fHn/9dhxuC3ltL+k6/Mf3DPj5Yh1umyq/dlq6BnctiMPPHzNg4zxJ/YqrV048Xn3MgLceM+BHd6oXEhERERFdW0Y09LxvV1KZQcItOYH5cZg2TvkxXsK8BYH5OmQG5rcKvAYNNi7RYpoOAAQaanx4v8KHqg65SHK6Duu/1tfuaPEfD8XhtrHy/zpa/ThY4cMndgE3AOgkLLk3PiyIXdUSlFBnkpAROIZERERERNeoEezeJrdA/OlftEgBUPOZEw/vEcACPf56n9xVDQAavnDhwV1+YEY8fr9Si/TgPC3eeE6HLA3QUePBfb8N/GEZLf5jXTxuSwbQ4cPml914P2STAJB+nx6/XyAHoo4aDx79bU8Xutv+xYD/yJFbeaoOO7Hqr8oxSNHiO4t0WGrRIFUn0NEq8PF/e7A12I1Ohx89pkMGBI4d8qJjThyWTpEQ7xao/NyD75fK3feW5Onxr1MkoNmLF2o0WP8lDbISgaZGP97+kxu7Q7rVpc+LwxPztbjFLCHeK1Bj92NvqRu7A5UFAGiQnxeH/JkSJhkkuLv8OHnah20lXlQFtjdNwrQUeZ/cbQL1TqDjrAdrSvr/A6Ts3kZEREREo9lQM0tfTSOXR4VAvVv+cdJEHQDgFosUDDwAkD5Bnp9+vQbpAACBGqsfgEC78tpkkxb/Ki8E4MM7//Bi7wEPNr/nxbHA7BDLpyq76fdjX0lP4AGAg3/04eBFgRq7APRaeWaKDj9/NB7/OluD9EQgPl5CikmDZffp8aeVOqVeGmSYJEwzaXD3kng8NFNCigFIHivhttvi8erdcuhITVFaXWbo8J/3aTFvnIT4eAnpU7VYvzI+2CXvtvv02PE1He6aKiE5HohPlLvurX/EgGezArXV4tlCPdbfrMG0sRLi44HkcRrccnMcXi2U15Wa0hN4ACB+rLL9kHlERERERNeSkQ098OCY0rIRn6rBQwCWTJBvxhsa/OgAgHESvgNg2UTlJt0p8EkFAHhxsF5JdYkafOfbCfjg+wa89Ug87tL4sfsDL97/wh8WaGQ6ZCrd2tAm8FGvAQs8+P52Jx7+LydW/dELQMITy+NwSyIACHxywI3v/daN3efkbafM0GH9jeFrSNYJfPSBG5s/8CGw+nmZcngLipeAc1689EcP9p5X5o3TID8HQEocvnOTMjDDRR+2/qobD/7Bi2Ndcte7ZXfFIR3Asq/HYdkE+aU1FR58/3duvHZCrlf8BC3Wf02Dj/Z7sPmgciwBNHzhxuY/urFlf/+tPEREREREsWqEQw+w63zPcz3ZMwLP8wjUV/pR7w8816PDvPFyMXeTH+8or31npwubD/lQ0yX/P94gYdpULfLviccb39djfbBFRCWwl17gE9Wi3nS42ST/5D7nw/c+8OGTGh9e+v/8qAEASMi+PjzQdJz14rkDPrx/wIvKVmWmTt2yInDw//Ngd4UXW61++VkiAPEJAOZrkKWssuqMD66JWszT+PFhIOSlafGv0OKuSco6W314+Y9eHKzy4de/9+Iju9xS1a7RyM86tSsrB+Byy88+fVQz+GZAIiIiIqJYMOKhp+HzQGuMhIxbJEyKB+CWn4upapbnT5qpwaREuXzNWU/IqwXe3+fGwy92I/dXbrx0wIdPLgZClAb5efFho7/JBNyBx38SJeSrlgISbpmrjCqXpQEgIV45Kk1NgRcCaPajySn/mDy2r8PmR3vIS9RcgWagbgRDDwBA3xOQ5i2Ix8Z/kacnZvbMT18gIV4JRh2t/pDw5sVz/6W0VO3qZ+NERERERNeovu7eL5/TPtQofa8mzZAHNZBHZxP4pFkOMOnT5AEMAIGGauV1C+Lx+39LwAf/loA38iSgwYfdH7jxve1ObK1Wgk+yBvOU4j18qHIoPyZKuEXdGjQjDs8ul0PG07eGH44xycozPgAACXplsdt1+VpNaqrllhn1dLCpp0xyYmg9NXjo/nhsvE+nhDYiIiIiIgp1Be6Se1pn4uPlOQ0X5RaK92uE/CxKoPdYhx8fnlZ+PizQrpNfkzU7PmQgAwnpCequZOFe+zzwjIuE25bEIz/w2hQtNt7bE7BOVnkB+NAQGAZ7khYPpcg/p9+tQZZS3/oLw9yiUusPPgukd/uw+Y9ubP6jByd1EjLTNMicKMF92gtroOvcBA02BsJblg4Ft2ixZEFcr9AGAHpN/8eGiIiIiCjW9b5LHgHv1Cl/HwcIGZ0NwCE/akL6fXVc9IcMP+3Ba1+EDGSwSm71+WCDAf86WZ7tPu/Dr4PlQxxy403lmZb4FC3Wf1t5bWE8ligDA3TUeLH1EAD48NLnyjM3Bg2e+I4BbxUasPNODeIBoMuPvXuGuaWnwouP7fKP6XPj8dcnDXjrewY8MVeDaSYJE7r92A3gl4eVgRI0EpY8aMDvHzPgrw8qrWVegQ8PKWHMKnBRWXX6PAM++LcE/P7rqoEViIiIiIiuEVck9KBCoD7ws1ugqiLwHy9q2oKlUFMX3qJy8A8uvFQh0OGXax4fj57nXBq82LLLE2H0NgAQeOe3Ia9VWpniNQD8QEO1B/8z5G/3NOxz4bmDfjR45YEVpk2QEA/A3erDa8Wu4MAKw8ePrb93Y3eDHKaSx0mYNlapW40Xm3cqx+EzNx77sw81Tjn4pJskJGsAdAm8v8+FrVXK6prdeOez8OM0RmmlIiIiIiK61ozsHycdNhJumatBihJ4ms/68Emvoaj7Ev7a2gofAlkhkqwsLTIMQMcFHw5GTlTDK0WDu6bIIau/uqVP02LeWMDd5h+2kdn4x0mJiIiIaDQbama5SkMPXQ4MPUREREQ0mg01s1yZ7m1EREREREQjhKGHiIiIiIhiGkMPERERERHFNIYeIiIiIiKKaQw9REREREQU04Y19Oj59y+vWjx3RERERBSrhjX0LLxOq55FVwmeOyIiIiKKVcMaeh65U8cWg6uQXiefOyIiIiKiWDSsf5wUAE42+PHmfi/+ecoHl1e9lEYTvU5u4XnkTh1mpQ9r/iUiIiIiGnZDzSzDHnqIiIiIiIguh6FmFn69T0REREREMY2hh4iIiIiIYhpDDxERERERxTSGHiIiIiIiimkjGHpcsH5UgpKjdvUC2D8pQclHVrhU813V5SjZU4meV7hgP1qC7RvXY/0z67H1zXJYO8Necm3rtKJ8zyg/Jg2VqnNKRERERHR5jWDo0cP27mqs/t4u2MLmH8HL+aux+uubUBJ2s+5CyQsrsPrNSuX/NhR/PQc5967G1j+UorSsFDv+1wrced1CbDjgCH3hNcFVXd47KNpLseE7G1A6mhNF5Xas/s52BM4qEREREdHlNoKhB8i9ZxFwohxHQsNNdTnKXQBQhvJDIfNRjvJ9QOZdC2AC4PrDZqz/CMj/zUnUVlSg4tMKnKypQNH9Duwo2ICy0dy6cRk07tuA1RtL0Rg6c+oq7K3Yi1VTQ2cSEREREV3bRjT06OfnIlsVbuz/KIcVFlhMQOk/Qr7/P3oYpdAj99ZMAEBjQxUwtRDrlhp7yuhMyP/Rs5jv2o1dH/XM7s0F2wfbsfkZpVvcO5Wwq/vSNVei+Kfy8vUbt6PsTHgB+9ESlFe74DpTpnSv24ztH9jCWlqiKQMA8DpQ+c5WeVvPbEXxsQgtVer6VAfWIncTLKt0AM2VKNtT0tNdzGVD5aFK2EI3GLatCPVpqJRbjFw2lBVtxvpn1mNzUVn4OtQidqOzo3KPvP8yuZ6VDS7YDpSgpFd5IiIiIqKRMaKhB1NzsUgVbioPlQNLn8WWB/Swf9LzrIe98gjsyMPiW+T/G8aagbpdKD6kCgjpj2Lv+fMouj98dg8Hyp7MwcKCrSi3A+i0ofiZJchZsL6ndah6O5bMXYL1b9vgBNB4YCtW3paDtft6tlX5q9XY8PMNWJ7/Mio75a5kmwsWYtl/9XTWi6YMvFZsz5uFJc8Uw9YJOM8UY/3iWVhSZO0pE6k+uRlY9roNQCPK/2sDXv6zHbCX4OXnN2DD87tRhQjd21Tbgr0cWwsWIufJMgT3rHI7Vm98GRvyl+HlSgeARpT+eCUWfnW7qhtiCPV2AACV2P6d1diwL9D21IjSjaux4YmVWPj19djw/HaUN4eWDyjH5ptykFOwo+/tERERERFdCqEI+fGyOvxDizAvLRK18v/EsxazWP7bRuHcXSDM5gKxq0MIIZxi1zfNwvzNXcIZeKGnShTdbxZms1lYvrRcrNu2S+y3Bpf2ybl7lTCbF4hNR0LKtu4SBWazyN1WK4SoElvmm4X5mztFqyf4KlH1Yq4wm1cp9RGi9AmzMFsKxd7WntUc3pwtzNlbRIXy/2jKVP1kQa8yrSWFwmJeILYcF33UR4iKHy0QZnOhKFXm1W7LFea7AsdRcbpI5JpzRdFp+b9VP1kgzOYCsbOpp4jz+Msi12wWq3Yrx+O9QmE2W0RhSUiFjmwS2eZsseWznllhVNuRlYrC4DEVQohaUXSXWZjvellUheyHvL1CURqcIb+u174QEREREakMNbOMbEsPgPl35QFHled6zhxGucuE+dkm6O/IQy7KcfgYAFTi8EdA7tJc6AMv1GWisOQ8Tpa+jmfvAMp/shYrcjOQlrMS29WtPyHKPyoB7ngKhbcE1wQY8/FyyU4UrTADdaUoq9Pj0ccLYNQFCuiR+XAhclES/pzRV5cjL6R33fwv5QJ2W/hIZP2WsaG0zAbTY4VhZYz3r0KB3oayj2x91AfIfnwndu5ah9yeWQOQt6VfvQ4FKT1z9bMLUHgHUPJReUjZPCy/P6RCt+QiF3bYwh4YGprM/5GPzJD96G0Ris6fx/kPC2FRLyIiIiIiGgYjHnpwYy5yled6XJ+Vw6rPw+IbAJgWIHemC+WHrMrgBnIYUjPOy0Phz97FP2vPo/bTd7FxXiU2/8tCbAgbBCHAhqrPAEwyQ70m0y2LkG3SA8crUak8UxReQH7N4RPD2enKisqjgP0/lyAtLS1kWoYdLqDyuLXv+hgzseiOTOj7DRCh5G1ZJqtXZIJ5EoDPqtidjIiIiIiuCSMfeky5WDQbKP3HEZR/UAbctQDZAIBM5N6lh/Wjw6j8R0gYAgA4UP6fa7HihbLQNUGfnovC4p14yuTAjrfDl8kMMKaq56kYjT2tSRGYxxrUsy6BEUY9kPk/96KioqL3tDl3wPpET95Wn1KNGM49IyIiIiIarUY+9MCC3KUm2D/ajmJVF7b5d+UBB8qw/UA58NXFmB98jRFm5xGUF72B3b16shlhDOm+Fc6EBbdagD+VotwbOt+G7XenIeO5I8C8BVgMK0o+UP1xmwOlKIEF8+erW0ouRTYW3AVYT9igN5lgCkwpDlR9dBhVzei7PvvWIi1tBYqj/hs82ViwCLCWlIV3v/OWo/RPgOVWeSjwS+Hyhfyn09EzOAIRERER0ShyBUIPkL0oD/qjJSixZyL3SyG33jfmIhcl2P0HYNE94U+vZD62BfnGMqy9bz2Kj9rg6HTBYbehvGg9XjlhRMFXIz/tkvnNp5Dr2oHV3y2GtdkFl8OG8h+vxuYTFhR+cz6QlI/C1UYceW4lth5Q1nuiGKtX7YDrjqewarZ6jZdCj/zHH4Vx31qs/Gk5bA4XXM1WFH93GVY8WQx7ir7v+jy5G7i/AMsDh0trAM5U4kidHXa7o/ew2NAj/7FHYfxkA1b+OHRbq7HDlYunvikPBT4kU7ORq7di+89L4PACcNlR8uwmRGpri8wBW50DLi84ehsRERERXXZXJPRg3gL5gXx9LnJnhsxXur4Bmci9UdU3y7gIRR++jgJtMdbfuxCzrsvArJyFWPHjKuT+bC9euqePvlzpBXi9ZCPmH1mPO+dmIGPWQqwocqKw+H08qwSa+Zv34/WHnXhlubLeu9fj8C0bsfeNgktuDenl1i3Y/0YBHP+5AgtnZSBj7p1Yf2Q+tnz4BvKVsQQi12cL9m/PD7aKWR7aiMLMEqxdkIOcnA0IHZYgSNmWsyh8WxtLXkdBurrwIOhy8WxxIUx/WI1ZU9KQlpGD7fO2BI9nv25djoL0MmxYsAxv1AGAC40NdtjrneqSRERERETDQhLy0G+QJAnKj6Oey2GHwwUAehhN0T8D42q2w+Ht5zUuB+wOF/RJJhiT1AuHmwsOuwMunRGmlIi1Gcb6RLGtofC64Gh2AEZT/88PERERERENg6Fmlqsy9BARERER0bVnqJnlynRvIyIiIiIiGiEMPUREREREFNMYeoiIiIiIKKYx9BARERERUUxj6CEiIiIioph22UZvK/3bx/jvz46hvsEOr8+nXkxERERERDFKp9ViUroJN984D4u/crt68ZANNbMMe+i52NSMN37zLmxnG9SLiIiIiIjoGmOZko5V31qBCakp6kWDNtTMMuyh56cv/1/YzjbAMmUS7ltyJ+bMmom4OJ26GBERERERxSiPx4vjJ6vx1/f3w3a2HpYp6fjBuu+qiw3aUDPLsD7TU/q3j4OBZ90TjyJn3mwGHiIiIiKia0xcnA4582Zj3ROPwjJlEmxnG1D6t4/VxUbMsIae//7sGADgviV3MuwQEREREV3j4uJ0uG/JnUBIVrgShjX01DfYAQBzZs1ULyIiIiIiomtQIBsEssKVMKyhJzBKG1t5iIiIiIgIIdngSo7oPKyhh4iIiIiIaLRh6CEiIiIiopjG0ENERERERDGNoYeIiIiIiGIaQw8REREREcU0hh4iIiIiIoppDD1ERERERBTTGHqIiIiIiCimMfSEsL++DGl5O6D+W7F9zY/EcawE2zeux/pn1mNzUQkq7a7wAp1WlO8ph7UzfHYo+9ESlByNZmuA60w5dvw0ZHvN6hLRG7Duw8oF24Ed2PqMvL2tb5bDdjk3RwoXrB+VoLyaBzsqDZVRvxfpGnFgAzIyNqDcq15ARESjGUNPkA27fnsE8/PzYBpgvqu6HCUfWRF+2+hA+XMLMWvxamz9QylKy0qx6yersSQnB2v3OXqK2Uux4TsbUNrPfVTlr1Zj9a8q1bN7sb61Ajm3rcCGbfL2in+8GkvmLsTmQ4O9oY2y7sPFa8X2vAwsXL4B2/fJ29vxv1Zg4XXLsL1aXfhqNJqDRSNKN67Ghn2N6gUxbmjnxPaHtVG9F+naUfbODuAbeciV/7j4wBoqUbKnMqovzYiI6PJh6Ak4U4LiE/Ox/P7wyBNpfuO+DVi9sRRht40ntmP9643If+0kaisqUPFpBSpqT2Lng8Du72zFkdCyw6FhB9Y9Uw7T2r04WStv72TNSbz+oAPbv7UJRwbzLeQI19360kps/iQbz35YG9zeyVP78ezMI9j8492qMHk1Gs3BwoJVuyuw918t6gUxbjDnpBLFz6zH+sJlWPaCVb2QrmXeMuz6vR4FD+Sql/StcjtWf2c7GJ2JiK4s7aZNmzYBwObNm6H8OGR/3vcRAOD+e+9WLwpTvqcE9rFZmDSmZ579kxJ8aJWQMS0VwS/QGipR8uExuCbOgDkBcJ0pw2uv/BJvl7yH9z5rwqQ52TAn9KwDzZUo/sVPsOMP7+G9A6ehm5aDGeOj+zrO9vZ6/MS7Ci+vzkZSn/NdsH70Hj76oARlVQbMmALUV7kwbpYZSWOycfedebhvsSXk9QbM0B3Hz949hsyvfwsLjABaj2DH65XI/vYqLBivFPPacaTkQ3x6ToJ5eirq//Iz7MZyPHP/jOCaHCfKUHbwDNoSJ2OSUQdb8Q+w+cNs/J93nsRN8UohjQFZc3T447bt6LxrHRZPccF26COUf9qMcddNQlIw4tpRuedDHGs1YPIUI3RR1T3KdWGg81CJ1wp/iU8fLMLvHurZP+hSManrj3jtVz4seOZehCzp4XWg8v+9gp+8uRvv7fsUTZOykW0yyF3lhlK3SNcQIlxnmVkwJyn1b6hEyYd2+ZwHXtBpRfl7/4BjbBbMGivK3/sIZSVlsOpnwCLqYXWOQ1aaUjqK7ffNBfvR/4df/GwHdu97D/+o1mFGzgwYA4e204ry9+phuM6A4zt+gp8V/ynC8XfhzD/LcVrKgCWlj/dGv3WU3wPHveGvtx8twYcnVe9fNZcN5X8pH9J7v+9zH+CC7YPX8Mq2t/Gnfe/h0+ZJyJ5thkETOC79nJNe7Kjc9xnq41Oha6mEbUr4ezGMy47Kd3+h1OsfOK2bgZzpyrUGZT/+uw0Z6Z1476XNePUP7+FT1xwsmGWELuQ4h9U3sOrqMrz28z4+75RrrrLKCqt66ut663UtyOft044MmB0fKdd8hH2AvL2yX/0Sv/zdn3q/9w68h/IL45A1KeR4NhxByYenIU2xIDXw+RR4P3rMmGEy9H6fDfReUO/L1BzMCLuG+7kGEPn98Y+6VNyUMwkGjw1l//cV/PJ3f+r9vgpV+jOs/vMC/J+XFmNSYJ66XiHH2H60BB+WleFPhx0wzzKis8rec0wGunYgv2cC9XrvQD1Sb7gJuir5nIW+/0KPZb/1JyK6gqLNCQMZcmYRipAfh+zx9ZvE4+s3qWf3UnSXWVh+eDhkzmHxrMUszOYCsaujZ27ttlxhtjwrDgshnGXrRJbZLCyLCsS6pwtFXrZZmM2LRZFVKXy6SCw2m4X5xuWi8Ol1ouAOszCbs0The60969tRILJvzBabPgzOUlSJLfPNYvlvGweYXyve+Ea2yLaYhdlsEdk3ZovsGzeJ/apX9XCKw5sXCPP8LaIqMOt0kcg154qi04EZraL0iaywfSl9wizMT5QGCghhlfct64lSEdib2m25wjz/5Z71BpWKQrNZLH61Vv5v615RaDGLxdt6Sta+uliYzcvFzvqeV/UWoe7RrEupa/A8LLL0Og9CCOF0hv1XCCHE/n+zCPMdkfZJCOGpEkVLzcI8OVssX7NOFOZnC7M5pC6DrluhWH6j6hoSQrS+Vxh2ncllssW6MqXC7xUKs7lQhJwd5ZyaReF7QgjbG6LgxmxhMZuF2ZItXyPPK1dIFNvvm1Mcfn6BMJvNIju/UKx7ukAstpiFeWmRqPIoRU4XiVxznlier95GSP1FrSi6yyxytynXh9qAdYz8+tInzMJ8V5HoY60K+bWDfe8PeO6FU5R+L0uYzRax+JvrxLo1eSLbHHJs+jsnA+j1XgzVcVhs+lJPvdZ9c7GwhNVLuV7uKhTr7s8VBU/Ldcsym8XibTvFs9nZIm9NT32zQo5L7dvLe1+HWYWiNPA2UvZJ/gwKTFnCbDYL8/eU+kbxXix9wixyn1gn8m7ME4VPrxPrvpkrH9vA54cQQpzeKZZnmYXZslgUPB04/j3rCTtXisM/tAiz2SwKdoe80U8XiVyzRTz7jyg+z9Ui7otZ5P0qUM/A52jgGlgusidHen8UiHXfy5WP+9MFYoHZLLK+t1MU5VtE7jflebmTzcKcv1OofxsI4RS7HlVdvwP83tn/fLbIzjILs9kssm7MFtk3Fog3bFFeO62lYl22+rpfLpbfH/7+C//MUj4XQq8VIqJRItqcMJChZpYrEnqqfrJAmLO3iIrAjM+2iGyzRVgsyo2jEEKIRrEz3yws/7Zf/mXzTbMwf2Nn8KZfeKrEy3eZhfnRXcIphKj4UbYwZ28ShwO/4ESr2LvGEnbTXrtN/oXesw3F8S1igXm52Kn+LdfH/Nptuf3e4AXCVbbFLCyL1om9oeFCFXqqti3u9cs+7EartVQUZoUHHiGEaPztcmE2F4id6l9sx7eIBeZIvxSVbSi/pAt2q18o67fuA65LDonmb+4UrcHz4BRVL+YKs3lV2E1tGE+rOLxNvskLu9kKUfWTBcJsKRR7Q6rdWlIoLOYFYstx5f9R1M2yZm/IcVRdIx27xCqzWSzYfFj03Kq1ytde4HwPFHqE6CMYRLH9/ijbCDtvrbtEQeiNpVKm/21EqltANHWM/ProQs9Q3vtRnPsO5Ti8HVLA+rLINZvFquBNd+R6D6S/0CN/nhSIXaH12l0QHuDeKxRms0U8W95T5vDmbGE2W0RhSc8LG3+VJ8zmdfJ15ZG/uFjwo+BREsJTIbbMN4vs0HlhlJv+4M1udO/F0ifMvY7t4c3ZYeeo9AmzMM/fIiqC6xGi4kch5/H4FrHAnC22fBZcKrZkm4XFYgk7do2/XS7MlmfFfs/An+fhIu2LUgdzoSj1COHcvUqYzQvEpiMhr26SvwhZ8BPl3aW8P/J+1fOB3vp2gTCbzSL35yHvwPJnhcW8WBTZemYJEfh8kENbQDS/dyJ9ZkRz7Rx+PvR8KmVKCoUl9PNd+cwKq3+/x5KI6MqJNicMZKiZ5Yo805N5bz5M9hKUn5H/bztQAvsdm7Dlq0DJR8oTJJ3lKDkA5N2TC0APoxFAvR3BAcV0mXiqpBa1b+RDD8A4zgg4GtHYFtiKEXmvVKH24LPIVOZY1u7H+fPnUbQ0UEZm/dNu2JYWYLnqcZ6+5g/EYFmAxYtykTVJD9exUuz+R+RHWK1FS3DnC40o+M27KJypXgrAUYa1C1di98yN2PvyIhhDFpm+VoA8lGHzd3egUhkJzmUvw4ZHX4EtpBwAGJe+jKKHbNj87bVYv2Yzqr72Ooq+Frq2HgPVvd911ZWirE6PRx8vCOlaoUfmw4XIRQnKD4WsSOE4tB0rb56FZS9UYf7ze/HuY5GeNbGhtMwG02OFyAuptvH+VSjQ21D2kbzHA9fNhMI1eSHH0Yi8RwqgrytDaR2AQ+UoQS6eWjMf+pAy+T/Zi50/Xw5zcN4QRLN9lwN2u101OeRnnKYXYv/ZWrzxQM+rXbAgeyZgawh9TkWPgkdU21hTCFNdCUoGGiQimjpGo5/9GPx7P4pzrzfCCMBWb+95HmzmUyg9VYvXv9ZzJnvpjFDP5uifKLOs3Y/ztW8gP1gvF2DJRiZsaAx72+Rh8R09/5v/pVwAechb2rNDpqkWAI1wdALQLULR+Vrsfzq750UuC7JuBOwNfX2WrMDKP2RiY0kRFhkH+V786vKwYzv/S7mA3RZ88H7RL86jtnwdsgPr8bpgyczuKTM7D/kmO0oOKJ88Z8pRYs/Fph/lAX8qVZ4JdKF8Xznw1cXI1Q38eR4m4r4A2Y/vxM5d65ALoPyjEuCOp1B4S8irU/Kw6mE9bGWlIZ+Jmci7p+cD3XhrLjKRieX3B35LAJhkgQWNcKhGwnTtK0GJqRAFt/bMi+b3TiQDXzuVKP2DA6Z/LZTPp8J4fyEKQ38fHSpHCRZh3eqQrekyUfDtXODP5SgPKUpEdK27IqEHN+ShwGRF2QE7ADvKSqyYf38elt+zCK49pfIDnwdKUYZ8LL9Hfsmi772ERc1bcWdGBnJyV2Dtxu0oqe4ZWcyycgsKp+7G6rlpmHXTEqx8Zit2HFHf/kdixa7f27Doa3mqX7Z9zR+Y6Z6n8NLPivDuwVqcfC0XpYXLsPVEeBn7X9Zi2QuVgDEXebeG/FYL8FZi+/9Yid0OIDtvMTLV/bOT8vHSrkKYDmzAkuvSkJaWhoyclah85FnkA7Ckh96i67HoZztRaN+N4s/zULQ19KY23MB172ddxytRCQss6pBoMsME4PCJkPPhtaK4IAez/mUzKudtxN4vKrBz7fw+6mVF5VHA/p9LkJYm76s8LcMOF1B5PPCw+UB1s+OVe0Nfn4a0f9kBFyphtQK2E4cBmGBW1z99PhbdYBr0dRAmiu3jow3IyclRTRt6blzaqrDrpbVYkZuDWVPSkDFrGV7pFWQiHP+xRhhhRdVp1Xy1aOoYjf72Y9Dv/SjOvW4R1v1sERw/vRMZGTm4c/labC4qQVU/w8IDgO3Xy3rXM/+NXl8a9Mdh3YWthStw502zkJaWgVl5ryDaw2RQv6dDw5KrEeWvb8bKe3OQk5GGtOtmYe0eVXGF9a0VWPYCsPHDvT1fngzmvTggFxoPvIHN31qCnJwMpE3JwKwnS0KWZyPvIROsZeWwA7B/UALrLXnI+9piLHKVoPQoAG85SvcB+Q8sAqL4PA/T174YM7HojkzodTZUfQZgkrxvoUyTLcDRygHPiV6rnmOHLWzMCxdK9pTA9FAeQqLoJfzeGejascNmV0JVGCOMKT3/kz+zyrBW+R0QmHKeKQdQiapov6ggIroGXJnQg2wsfkCP8n3lcNlLUfKJ/O2b/o485CrfAh/5qARYurhnWNCZBdhZUYuTH+7Elm/Ph+HMbqy9Nwc5T5XJ3+4ac7Gx/DxqP30fRT/MR1bnEbz89TuRkbe9/5uYo7tQXLcIy5eqbmn7mj9IxgeWIw82lHwQWgsrtr9QhkVvvIunxu7G2v9Vhl6/7v+wFZuxEXtfWYTKF9ZGHMrZeMdG7D91Evt3vY7XX3sX+0/WYu8ioBImZM8Ir7djz8vY3myCKakEr7zT7xEJilz3ftZlNPYbDMxjlQfPvVZsz7sT6z8w4NHik6goLsT8kF/kvRlh1AOZ/3MvKioqek+be0ZS6r9umXiqJMLrKyqw8Q7AMPaS2nL6F8X2sbQI58+fV01FWAQADcVYkbMEmz8yYNH3Xsa7B0+i9uw/sXG2ekN9Ub5d7080dYxGf/sx6Pd+dOc+8+GdqKg9if3FW7DqVgOqdq/FkpwcrP+g75abQMtv2PRhISK1NUZif2cFZi3ejPKkRVj34rv45xe1OH9wY7/f8EfFewSbFyzEyt9WIfsbW1D0XgVO1p7HzgfVBQHHvrVY9kwlFqlbi6N9L0bhyMYFWFiwA1XzCrBleykqTtbi/G/yw8pkL8qD/kAJyjvtKP3zEWTmLYIpKRd5dygtQJ+UogSLelq8Bvo8DzXAvgAGGFPV80IoLYGXpLMEu/5sQkFeaOQZ+u+dga8dC7JmAo5W9W8GO2xKKykQ+MzKQ5H6fVFRgYqKd7EqPfS1RETXtisUeoD59xdAv68UJR+UoNyUh9zpAEyLkX+HFSUflKB0jyuklcWG3d+5Eyteb4Rxdi7yHnkWL/3mfRz+0Xw43tmFcrhw5MdLkPNcGfTp2Vj0YCE2bn8XFb97FPqjxSgJ+SWhVllSDPv9y5GnGsipr/l9KXsqDWl3R/hF1+mAA4Ah7JtEPRa9sh9F9+fi2bc3wvL7lVj7B9Uvt9mF2Pv/CjH/oSLsfNCGzd/YisrQYahdDrnLkNaIzDvykPdALjKNelT+v2JY9XnIvT6k7JntWFFYhkXb92P/L/Jh27g6LEQNqu79rWveAiyGFSUfqLrgHChFCSyYP1/+Htb2f1dh89FMPFv+T2y5J5rbkWwsuAuwnrBBbzLBFJhSHKj66DCqAt1QBqhbLqyotOl7Xm8ywdRWhfJDVXAAMM2fDwtKUHogZNMAbEV3Ii1jQ9jQ3c7Qc9EmH6d+RbH9/tjLdqPcm4+X/vgSCh9chOypRuhhC7sBkllRfih8bY5D5bAiFwvmhc3ubTB19IbemrrgGGgHQgzuvR/Fua/bjdW5K7CjXn4vPPqDl7Cz9DC23OJA8R8uVwcfO0p/Xw587SXs/Vkh8u/JhiVFD9Tber+PBuuTXXjDnolnf7sTzz6Sh9zZJhj1dtjULXXV27HiW2XI3b4fRSFd5YDo34sDO4Jdb9qR+cOd2PmDR5F3RyZMRj3sdaq9vCUPBfoylO4rRckBE/LusAAwYfHXcmEtKUNJWQlcSwOfpwN9nqv0tS/71iItbQWK7SYsuNUC/KlU9QdD5ZZELFoQ1jozFK59u1A2tQDLbwibO8TfO9FcO5nI+6oF9v/cjB0NPa+0Fm3AjpC3nil7PkyoRFVDyHvDZALqDuPwZzY4e7UmEhFdu65Y6MGti5GHEmzYWAb9A4uVX0om5C7KxJGfrscOey7y7gh8v2eBxWRH+XOrsfWADY5OFxx2K0o/qgSmWmCBHhaLEfbX12L1O1bYHS64mm0oLyuHC1nB7kq2N1ci56YcbJZHzANQiZJ37Mh7QN2Fra/5Cq0BOFOJI3U9zyos+sajMJ7YjBVPlcBqd8DV6YD9RBm2rtqAMuTi0a+Gfn9sQe6tSqVmFqLo+WyUFa7A9tBfktm5mG8EACMW/Z8i5Le9ghXPhHwL2lyCtTmzcOe6ElibXXA5bCgvWoEV/2lD9g8Le1rIvFZsD3m+xbh0C4oetGHzt1+BVblBiLruA60rKR+Fq4048tzKnvN0ohirV+2A646nsGo25L+B8qoVuGExLMdLULJHPSl/xO+jzci5KQcr37QB0CP/8Udh3LcWK39aDpvDBVezFcXfXYYVTxbDnqKPqm7rVhtR9qSqbnkrsPb3dhj1AGavwlN3uLBj1WoUn5CPg+3AVqx+wQrL46swHwCyF2A+duOVIuWP03ZW4pUfvtL7Dw/qAVvlEdjsdtgdrui23w9jkhFAJawnlCug04ri767FDhdgO10JR8iNUNlTK+RtOOT6r3iqDMaHVkUM8GHviajqaEH2l/SwbnsZJc0A4IJ9zzps2qdecz8G9d6P4tynW2C6UI4Na7aivC5w/Zai9BhgmRryvlOfk0Erx+abcpBTsAM2GGEwAjhu7XmmrroYqwt3wAUbrMeVZ7GGwmiEGTZUVSrPKLnsKP/xSmz4BMDpKlg75YC/JHczHI+9ji13IPy5JOV6G/i9GA0jjCbAdrxSef7GBfuBrVi58QgAG6oCf+xVl4vFXwVKnt2MMn0eFivhwHTHImR+shXrf21H7tJc5fN0oM/z3tdlxH15cjdwv/zMZeY3n0KuawdWf7e45/Pwxyux4RMjHn0swnNCg+JCyR/KYHlwuaoVL7rfO9AZAFSi8qjy+8Ib3bWTuX4nNt5Sjg03ZSDnphzkzErDnT8HskPz6g2r8OwdNrzyzfDPrJV5q7H5CC69hYuIKJYERjQY6kgIoQY7KkPpE/LQz6EjG8mjOUUYMtRTJXY+Kg9VG5xuXCV2Bkc9axX7n5eH/QwutywWm8p7hr7pNXrbZ1tEdqRRxfqaH9C6X2xShkwNHZWn6rer5GFSVXV847h62NbQIauFPLLU0p7hVSONGCUP8Ro+3Gxr+SZ5eNWQ7eX95HDIyFvKaE2q0ZlER6lYl2UWWf+2Pzi6z8B1j3Jdnkax92n5OAem7G8UicPB18gjU4VtJ2xSjud7hcKsGoWusWRd+P5mFyj1u5S6vSGqQoc4aj0sir4Rfp3lPl8aNmpU1W8L5GvUbJaHg35vpyhUjQrYWr5JHjrWHHIuo9l+XzxVYmdYvSwi7yeHxeFf5QlzYNvKtbVp27qwc5n9jZ09w/aqRjHr9Z6Ipo6t+8WmO3qWm+8vEnt/3v+IhmqDeu/3e+4V1p1i1Y0hy81mkf1o6H73cU4GEP5eVK7dwH5ad4qC7JBtWvLEliOHxRv3m1XXsWq0vz7nBT4XWsX+51Xn4Ildouq9dSI78J5Q3h8Rp36vt9D3onr/FKr69fqcubFQ7DquDKcces6VOgVG3ZPJI7mZ1aNgDvB5PpTrsvVIUfj5mJwr1pWEbDTSZ2+f80K23bFLFISMEhlu4N874fuqbCuaa0cIIYRT1JbvEkXPrxNbduwXtc4IoxBG8ZlFRDQaDDYn9GWomUUS8oshSRKUH4fsiac3AwB++eJG9aLh43LI32TqjTBF+nrc64Kj2QGXzghTSoTlIY48l4FlDS/3GjGor/lRCWwfcl/yiHUcTiHb0xtNA7YY9Gs4666cJ32SCcYILQxD54LDHt357VM0det0wN7p6vuYuhywOwBjihH6wXYhiWb7fel0wN7Zx3bPbMedtxWj4OB+FE6VzyWGsg1EV0dXsx0O7SVeJ4My8Ll3OeyQPx76OG+XgavZDgf6rtOQBc7Bpe5LFOdyYMqxv9TPBbWBPs/VotgXV7MdDq8eRtNAzwJFx/7WCuT8fD72H+5nRLZB/N4J1d+1U/lCDpbsWY695RsxP7C4uRgr566HYXuEkQkH+swiIrrChisnDDWzXH2hZ9hU4pXFK9H4wwpsUUaI638+0SgXGnqmqxcS0eA5sLvwThTP34t3V0c7xMUwcZRh/Z0rUdxsROat82FurMThajtct2zE/j8W9h7Rk4holBuunDDUzHINhx6iGNNpRfkHjTDfk4vMPr4FJ6KriNeByr8UY/dHVjiSMpG7NA95d1iGpQWLiGikDVdOGGpmYeghIiIiIqLLarhywlAzy5UbvY2IiIiIiGgEMPQQEREREVFMY+ghIiIiIqKYxtBDREREREQxjaGHiIiIiIhiGkMPERERERHFNIYeIiIiIiKKacMaenRaLQDA4/GqFxERERER0TUokA0CWeFKGNbQMyndBAA4frJavYiIiIiIiK5BgWwQyApXwrCGnptvnAcA+Ov7+9naQ0RERER0jfN4vPjr+/uBkKxwJQxr6Fn8ldthmZIO29l6vPzLHag4doLhh4iIiIjoGuPxeFFx7ARe/uUO2M7WwzIlHYu/cru62IiRhBACACRJgvLjJbnY1Iw3fvMubGcb1IuIiIiIiOgaY5mSjlXfWoEJqSnqRYM21Mwy7KEnoPRvH+O/PzuG+gY7vD6fejEREREREcUonVaLSekm3HzjvGFt4RlqZrlsoYeIiIiIiGg4DTWzDOszPURERERERKMNQw8REREREcU0hh4iIiIiIoppDD1ERERERBTTGHqIiIiIiCimMfQQEREREVFMY+ghIiIiIqKYxtBDREREREQxLRh6dDodPB5P+FIiIiIiIqJRwOPxQKfTqWdHJRh6ZsyYgZMnT4YvJSIiIiIiGgVOnjyJGTNmqGdHJRh6vvKVr+DPf/5z+FIiIiIiIqJR4M9//jO+8pWvqGdHRRJCCAA4ePAgHnroIVRXVyMuLk5djoiIiIiI6IrweDyYOXMm3nnnHdx2223qxQMKhh4AWLNmDXw+H1577bXwUkRERERERFfId77zHWi1Wrz66qvqRVEJCz0AcN9992Hq1KkoKipiiw8REREREV0xHo8Ha9euRV1dHf7617+qF0et15DVf/3rX6HVajFz5kz89Kc/xbFjxziqGxERERERjQiPx4Njx47hpz/9KWbOnAmtVntJgQeRWnoCDh48iF//+tf429/+htOnT8Pr9aqLEBERERERDSudTocZM2bgK1/5Cv71X/91SM/wqPUZeoiIiIiIiGJBr+5tREREREREsYShh4iIiIiIYhpDDxERERERxTSGHiIiIiIiimkMPUREREREFNMYeoiIiIiIKKYx9BARERERUUxj6CEiIiIiopg2In+ctKurCw0NDXA6nUhKSkJaWhoMBoO62GXj9XrR2tqKcePGQafTqRfTCHE4HAAAo9GoXjTsRnJbkVzp7RMRERFRj8va0iOEgNVqRXl5OWpra9HU1IRTp05h//79sNls6uKXTXd3N7744gt0d3erF9EAfD4fLl68CJfLpV40aHV1dairq1PPvixGcluRXOntExEREVGPyxp62traYLPZkJmZiXvuuQdf/vKX8ZWvfAUzZsxAdXU12tvb1S+hUcbr9eKLL75AW1ubehERERER0VVBu2nTpk3qmcOlvb0dTU1NmD17drBbmSRJSE5ORmNjIzQaDcaPHx8s73K5UFtbi4aGBrS3tyMpKSn4OiEEWltbodFo0NnZiZqaGly8eBFxcXG9usoFlp8/fx4+nw9arRaNjY1IT0+HXq8PKwvlxr6lpQXx8fGor69HXV0d3G43kpKS4Pf7UVdXh3PnzqG7uxvJycnQaHqyos/nQ2NjI2w2G5qbmwesj3q/oNrv1tZWGAwGxMfHB5cLIeBwOFBTU4PGxsao6mEwGODxeNDd3R1Wn/6OsZrL5cLFixdx8eJFxMfHw+v1QpKkYN0Gqrea3W4HACQlJYWdn8TExLB9Gez+NjU1AQASEhIgSRIQsi2TyRR8TXt7O1pbW6HVahEXFwchBC5evAibzYaLFy8CABITE4PrCL0uAtuKdMxC6xI4Dq2trYBq+0RERER0ZVzW0ON0OnHu3DkkJiZizJgxwZtJrVYLi8USFnja2trwz3/+E11dXTAYDLh48SJqa2uRmpoKvV4Pn88XbHGor69HXFwcOjo6cPr0aYwZMwZJSUkAgMbGRhw5cgRutxsGgwENDQ2oq6uDEAKTJ0+OGHo6Ozvx+eefw+FwoLu7G5Ikoba2Ft3d3aivr4fT6YRGo8HZs2fR1tYGk8kEjUYDj8eDzz77DGfPnkVCQgK6urpQXV0dFubsdjuOHDkCn88HvV4fvDkO7FfofickJKClpQWnT59GcnIykpOTIYRAdXU1Pv/8c2g0Guh0Opw7dw4tLS2YOHEitFotPB4PKioqUFtbC4PBAK/XC6vVitbWVnR3dwdvvAc6xmoOhwMnTpyA2+1GR0cHWlpakJCQgLFjx/aqd2trK06dOhWsdyR2ux3Nzc04e/YstFothBCoqalBW1sbJkyYEJwXzf6GHnev14vTp0+jra0NEydOhEaj6RV62tra8Mknn0CSJKSlpUEIgePHj8NqtQavr9OnT8PpdGLChAmQJCl4XbS2tqKjoyMYns+fPw+z2QydThesi81mCwZNq9WKzs5OJCcnM/QQERERjQKXNfQYDAa4XC6cOnUK586dg8fjQXx8POLj44MBCAA8Hg8qKysxbtw43HzzzTCbzZgyZQq6urpQX18Ps9kMSZJw/vx5eDwe3HzzzUhLS0N6ejo6OjrQ0dEBs9kMr9eL48ePw2g04pZbbkFaWhqmTJmC7u5udHR09Bl63G43amtrMXnyZMyaNQsmkwkGgwGnTp3CpEmTMHfuXJhMJowZMwY2mw0TJ06EXq9HTU0NWlpacOutt2LKlCmYPHkykpKSYLVakZKSAr1ej1OnTiExMRG33HILzGYzJk2ahKamJnR2dsJkMuHs2bPweDxYsGAB0tLSMHnyZDidTly4cAFmsxldXV04fvw45s6di9mzZ8NkMsFsNqOmpgYJCQkYM2YMzp8/j3PnzmHhwoXIyMhAWloaUlNTUVNTE7zxjuYYa7XasOOSmJiI9PR0NDY24vrrr8fcuXMxduzY4LrGjBkT3K8pU6ZAkiScPn0aZrMZcXFxYeuCEnocDgduuukmzJgxI1jPM2fOICkpCWPGjEFHR8eA+1tTU4OmpiYsXLgQU6dODa7n9OnTGDt2LJKSksJCj9PpxKeffooJEyZgzpw50Gg0OH/+PGpqarBgwQJMmzYNaWlpmDBhAqxWa3A7gesiLS0teA1MnDgRNpstWF+73Y6zZ8/i5ptvxvTp04N1qa+vZ+ghIiIiGiX6HL2tubkZdXV1aGpqQldXF/ooFmbJ0nvVswBlIIHzDQ1otDfC7XJBp9NhZmYWJk6cKH+j3tGBysoKzJl7fdhoV60tLTh+/Avk5NwAQ0ICjlVWIiUlBVMtlmCZOqU717zsbHR3daGi4ijmzr0e40JakRwOB774/Biys3OQPGZMcH5AR3s7Pv/8GK6/fl5weWDe3OvnYUzIvMrKCsy9fh6Sk5Px+efHMHbMGEybPiO4Lo/Hg6OffYa09DRMmTwVJ0+egNPZjevnzYNOJwcBv88PSSNBkiTU2WxoaKhHdvYNSEhMAAAI4QcEICnduQLHPhAU3S4Xvvjic6SmTsCUqVNx/IsvAABz5s4NlhFC4PgXX0Cr1WLW7NlRHeOkCC00bpcbn376CWZmZiE1NRUA0NnRgYqKo5gzZ27Yce7q6sLRzz7FrNlzkJKSErIW2ckTJ+DxuDH3+nnBrmqBemo0GsyePQeQ+t/fSZMn4/PPjyEpMRHXzcwMrlv4/Whrb0dSYiJ0cXE4eeIEAGDatGmoqDiKhIQEzJkzF1qlW1rVyZPwer1hx8zv9+OLz48hPl6PrFmzIl4XPp8v7Drsb58Cx17t/X3vqWcRERERkUKSJCQmJiI1NRVTp06NeF85WBFDz9GjR2G32zF1qgUTJk5EUmJi8Ab8Urndbthstag/dw6ZmVlIV1o+Pj9WqS4aNC87B0ajccDQ09raiuNffI4bb7wpLNxEunkNFWl5X/M+++xTzJl7PcYkj8Gnn37S56hmaWnp8o1zRwe++OJzuJxOJCYmYtz48TBNNCFZ6e4XuKFva2uDISEB48eNx4SJEzDOOC54zN0uNxoa6nGx6SK6OjuDoWD69BmYNHkyjlVWwmAw9LrBDtz4z5o9O6pjHOmCihR6mpqaIh7nQNlJkyaHnaOA0Pqo5zudTszLzoZWq+13f83mtH63ESCHEQ/8wo/WlhZMnzEDU6dYAKknuDgc8nM3auPGj8f1189Dd1dXr2sgNPREe+yJiIiIKHrC70dnVxcuXriAujobTCYTbrjhBnWxQemVZA4ePAifz4/c3Dsxbfp0JCcnDznwNDaeR7XVCp/PF5wXHx+P666biQkTJuLCxQvyQAPKsxvZ2Tn40pdu7zWNGzcubL190Wo0YQ+7X06SRoJWq4PFktGrvl/60u2Ycd11AIDk5GQsWLAQt8xfgPRJk+DsduKzzz5FdbUVQgjE6/W48cabsfDWLyEjIwM+nw+fHzuGY8cq4fP50NXVhf/+7yNobW3BlClTMH/+Qtx+xx0wGuVjotVog8+khOZXv98Pj8cd/P9wHWNEcZz7GhgBgVarXjFbPp5QWov629/AcY9Gc7M8wMF1M2eizmZDe7s8Ap0kSdBqNZgwYWKv4/ClL92OuXPmQqsJ7+oXSWA9RERERDR8JI0GycnJmDZ9OnJz74TP58fBgwfVxQYl7I7t6NGj0OsNmHv99UMOOqE0kgbnzzego6MjbL4EKez5EYMhITgwQLw+Pjj5fF60tTsg/P6w1/clsB718MqdnZ3weDxh8y6VTqdDYmIiurq7EBenC9ZZq9Wgrc0Bj9sDn8+HqpMn0FBfj8TEREyaNBnXz5uH666bieamJvmZkZoanDplhUFvgNmchtlz5mDu9fPQ3t6O7q4uOFpbIUkS5syZC7M5DQmJCfD7RU+gkYDU1FQ0Nzehpbk5WL/mpia0tLQE/z9cxxgADAkJ0Gq1vY5zR2cHvF4vkpLlQSUi6ehohzskjHk9HnR2diApMRFarXbA/dXpdEhKTkJrayv8IXV2u1w49I9/oKG+PjhvzNixmD17DialT8LEiRNRXW2F1+OBRnkjuVxOaDRS8Fjo4nTo6OyA0+UCeh4561NgPe3tbXC7e+8TEREREV0aSaPB3Ouvh15vwNGjR9WLoxZMNs3NzbDb7ZgzZ054iUuQkpKCsUYjThz/AhcvXoDX64HX40Gj/TwuXryAlPEp0Gq1MBgMmDjRhFOnqtHc1ASf14d25fkZu93eb6tCKL1Bj9QJE1BTcya4npbmZtTW1oQNnDAcJElC+qR0NClDHns8HrhdLlitVlRXWwFJboXRanUh9fHC7XKh1dGKeL0eOq02OEx2Q0M9vF4PPG4PHA55WGVdXBx0Oh28Xi+6nU5AyDfUZ06fQldXF7qd3fD7/ZgwYQLMaWk4dqwS/zj4MQ5+fABVVScRH98zaMOQj7Ek72tHezvcLjd8Ph8MegMmTJgYdpzb29tRba2Ccdw4JCf37kIY0NXVhdOnTsHtcsHtduPUqVNwOp0wp6UDSqjpb3+FEEhLS0NrawtstbXB43769GkAAuNDuuglJiTKg2ZoNLBYMuD1enGm5gyEEDCZzHA6nTil1MXj8cBWW4svPj8W1jI5kAkTTXC73WH7VFNTg87OTnVRIiIiIhqiOXPmBEcCHorgMz2BVp5p06ery1wSt9uNamtV8O+gQAkMU6ZOxbSMacEWJZ/Ph5ozp3Hu3LlguQkTJyIrKws6XVyvB8gDQp/p0Wq18Ho9qKqqwsULFwDlJnrGjOtwrv4cZmXNGrZnelJTUwEBXLhgh9VaBa/XCyitIHPmzA0OfuBTho+22xuD20tMTMTsOXPlIan9ftTU1uCsMqw2AMTFxQUHA/B5vaiqqsKFC/JoZJIkIWPaNEiQcObMaVw/LztYl87ODly8eBFarRYmkxlnzpwGQp4rGegYRySA+oZzOH3qFPx+P6ZPn4GpFkvkdU2YgJmZWX3+rZ6TJ04gPj5eGZ1O3h+dTofZc+YGnyeKan9TUgc87pGeqWm6eBHHj3+B2bPnYMLEiXC0tuJk1Uk4u7uBQF1mz0FKSiogRb4Gel2HQu5Gd+LE8WBdJk6UR/9zu918poeIiIhomNScOQOXyzmk53uCoeeDDz5Azg039vk3Vi6Vz+eDz+sDJCBOp+uz+5zf74fX44VWp+01hPJg+Hw++Hy+frc1XIQQ8Hq8kCTI4SFCo1JgvzRa+dkaNeH3w+P1QiNJEdfR3/40Np5HzZkzyM65AYmJiYAyityxygqkpKQiY9q0sPLDdYxxCevyer0QfgFdnC5iK1x/+xsQzXEfkAC8Xg+EQJ91iUawLhop4vklIiIiokvT0dGBiqOf4Z577lEvGlAw9OzduxeLFi3u8waTRi+f14vjx79AS0uL3LVMaaVITEzEvHnZ0BsM6pcQEREREV1VhN+PsrJSLFu2TL1oQMGEI4Rg4LlKaXU6XD8vG9nZORg7dgzGjhmD66+fh5tuvoWBh4iIiIhigqTRhI1WPBhMOTFCkiSMGz8e183MxHUzM5GSmtr34ARERERERNcQ3hUTEREREVFMY+ghIiIiIqKYxtBDREREREQxjaGHiIiIiIhiGkMPERERERHFNIYeIiIiIiKKaQw9REREREQU0xh6iIiIiIgopjH0EBERERFRTGPoISIiIiKimMbQQ0REREREMY2hh4iIiIiIYhpDDxERERERxTSGHiIiIiIiimkMPUREREREFNMYeoiIiIiIKKYx9BARERERUUxj6CEiIiIiopjG0ENERERERDGNoYeIiIiIiGIaQw8REREREcU0hh4iIiIiIoppDD1ERERERBTTGHqIiIiIiCimMfQQEREREVFMY+ghIiIiIqKYxtBDREREREQxjaGHiIiIiIhiGkMPERERERHFNIYeIiIiIiKKaQw9REREREQU0xh6iIiIiIgopl3W0OP3+9Hc3IzWlhYIv1+9GAAg/H60trSgubkZ/j7KEBERERERDdVlDT1ejxfWqpOorKxAe0e7ejEAoLOzE8eOVcJadRJej1e9mIiIiIiI6JJc1tATIIRAc1OTejYAoKmpiS08RERERER02YxI6DEYDLh48SLcbnfYfK/Xi+bmJuj1+rD5CAlK1VYrqq1WNDc1QQgRVqa7qwunT5+CteokbLW1cLvC1+92uWGrrYW16iROnz6F7q6usOUQQFdnZ7/rgADa29pwqtoKa9VJXLxwAR6PBy0t4d3xQrcVcT1ERERERHRFjEjomTBxIlwuFzo6OsLmt7W1oaurCxNNprD5wu9HtbUKn39+DC6XCy6XC59/fgzV1qrgs0FNFy/iyJHD8vNCQqChoR5HjvwT7W1tAICOjg4cOfJPnG88DyEEWpqbceTIYVy8cCG4nfqGc/jkkyPBdZxvPI+jRz+Fy+lUKgKcPVuHTz/9bzgcDvj9AlZrFSorKnD61Klgd7z2trbgtvx+eT2hdQGAhvp6HPrHQbS2tATnERERERHR5TcioWdM8hiMHWtEoxJAADlQNDc1ITl5DJKTksPKX7x4EXa7HTfeeBOunzcP18+bhxtvvAl2ux0XL16EEAKNjY1ITU3FTTfdjKxZszF//gIkJSXh7LmzEELg4gU7DAYDblaW33zzLTCZzKg7Wwef1wu3y4U6Wx2mTrXg5pvny2Vuuhk6nQ4NDfUAgO7uLpw9W4fpM2bg5pvnY9bs2Vi48FZotRp4vXLg8Xm9qD5VjdTUCVgwfwFmzZ6NBfMXIDV1AqpPVcOnlPN6vXC5XPCxKx8RERER0YgakdCj0WqRmpqKNocDLpcLAOB2u9DU1ISJEydCq9OFlW9pacH48SlIHjMmOC8pORlGoxEtLS2QIEGr1cLj8cDn9wEAtDodsrNvwOzZcyBJErRaHbxeLzxKa4yk0SBrVhZuvOFGaHU6xOv1WHjrrcjIyAAkeRuSRgO93gCX0jWtvV0efGHiBFOwjFanQ3r6JPk/AJxOJ1xOJ9LS0yFp5MMpaTQwm81wdnfDqbQaTbVY8OW77kZqamrwtUREREREdPmNSOgBgJSU1GA3MwBKdzEfxo0fH1bO5/Ohu7sbFy9ewP6/f4S/f/Qh/v7Rhyjf/3c0NzfD6XLC5/dh8pQpcLndOPjxx/jkyGGcOlWNzs6e7nNmsxnx8fE4fPgQ/vnPQ7BWVaG1tTVsW36fD/X19fj00//GgfL9OFC+Hxcv9nR/c7lckCQJGiXMBISGNKfLBbfbjaOffRqs698/+hAVFUfh8XjgUj3HREREREREI2vEQo/eoIdx3DhcvHgRPq8PFy5cwLjx45GQkBBWTm6l0WDChIn40pdu7zXNnTMXWo0WycnJWLBgIW6ZvwDpkybB2e3EZ599iupqK4QQiNfrceONN2PhrV9CRkYGfD4fPj92DMeOVcLn88Hj9uDo0c9QX18Ps9mMG2+6Gbl3fhlmc1qwLgmJCRBC9Bpdzq20VgGAVqOBTqdDdnZOr7p+6Uu3Y9y4cWGvJSIiIiKikTVioUeSJJgmmtDW5sDFpgtwOFoxIXUCJEnpN6bQaDRITk6Gy+WERiMhXh+PeH08dHE6dHR2wOlywef3oerkCTTU1yMxMRGTJk3G9fPm4brrZqK5qQlutxu1NTU4dcoKg94AszkNs+fMwdzr56G9vR3dXV3o7OyA0+nE7DlzMGnSZCQlJQFA2AhzycljIEkSztWfDQ6g4HI6cfZsXbCMwZAAjUYDj8cTrGu8Ph4+nxdt7Y4+/ygrERERERGNjBELPQAwZuxY6PV6nKquhkajhdFoVBcBAJhMZjidTpw6dQpulwsejwe22lp88fkx+Hw+aDVaaLU61NScQXNTU3BgglZHK+L1eui0WsTHx6O+vh4NDfXwej3wuD1wOFqh1Wqhi4uDRquBEALdXV0QQsDn88FWW4vW1ha43S54PR4YDAZcN3Mm6s+dw8GDH+PQPw7in/88BK22p3ubwWDAxIkmnDpVrdTFh/b2dlRWVsButwe7xnH0NiIiIiKiK0O7adOmTQBQVVWF666bqV5+SXw+H86fb0BKaioSExOh1WrR3d0Fh8MBs9mMiRPlAQK6u7vR3NyE9PRJ0Oq0iIuPx9gxY3Gu/hxqas7gbF0dOjs7MWfOXIwfNx6QAOPYseju7saZM6dRV2fD2bNnAQCzZs2GwWBAclIS/EKgpuYM6mw2nD1bh+6uLmTNmo0xY8YgPi4ePp8fp0+fgq22FnU2GxISEjFlyhScO3cWOp0ORqMRiYlJSE+bBL1ej3i9HjOvm4nk5GQ0NzcH62s0GuHxuHHqVDXq6mw439CAcePHIysrKxiQWltacPHiRUyYaEJiYqLqSBERERER0UBOnzqFWbNmqWcPSBLKGNJ79uzBkqX3qpdfWQLwej0QAtDF6Xp1hQMAv98Pr8cLjVZ+tkZN+P3weL3QSBJ0urjgKGwBgdfr4nS9Bizo7urG0YrPMH3adPlZH0n+o6k1NWfQ2tqKnOycsEENAuvS6rTQarVh6yIiIiIiokvz/r738MADD6hnD2hEu7cNmgTo4uIQFx8XMfBAeQYoXh8fMfBAGT46Pj4eurjegQchr1cHHgBISEjAlMlTcPLkCRw69A9UVlTg4McHcLauDlOnTu011HZgXQw8RERERESjR+87feohAVOmTsWChbciLS0NBoMe06fPwK233oYJEyaqSxMRERER0SjE0BOFhIQEZEybhsysWUifNAnx+nh1ESIiIiIiGqUYeoiIiIiIKKYx9BARERERUUxj6CEiIiIiopjG0ENERERERDGNoYeIiIiIiGIaQw8REREREcU0hh4iIiIiIoppDD1ERERERBTTGHqIiIiIiCimMfQQEREREVFMY+ghIiIiIqKYxtBDREREREQxjaGHiIiIiIhimiSEEACwZ88eLFl6r3r5sGlpcaCjoxMutwfKJomIiIjoCpEkCfr4OCQnJ2H8eKN6MdGo9P6+9/DAAw+oZw/osrf0eDwe1NXV42JTC5wuNwMPERER0SgghIDT5cbFphbU1dXD4/GoixDFjMve0lNXVw+nyw2DIR4p48chKTEBkiSpixERERHRCBJCoLOrG80trXA63TDo4zF16iR1MaJRZVS29LS0OIKBZ+rkdCQnJTLwEBEREY0CkiQhOSkRUyenw2CIh9PlRkuLQ12MKCZc1tDT0dEJAEgZP45hh4iIiGgUkiQJKePHASH3bkSx5rKGHpdb7hualJigXkREREREo0TgXi1w70YUay7rMz3W6hoAQNbMaepFRERERDSKVCn3bZnDcN/W5ZbQ4JDQ1i3Bf5WPYaWRgLEJAulGgcT4q3xnYsCofKaHiIiIiK4tXW4JJ89r0Np19QceAPALoLVL3qcuNx/XuFox9BARERHRsGlwxEbYUfMLed/o6sTQQ0RERETDpq07doNBLO9brGPoISIiIqJhE4utPAGxvG+xjqGHiIiIiIhiGkMPERERERHFNIYeIiIiIiKKaQw9REREREQU0xh6YozT5YLT5VLPDuPxetHZ5YRf/ru0l40QQFe3k3/dmYiIiCKQYByvwdypWtyUocVNFg1mmyQkqYtddhIsaRpkpWkwYzxHZ4tVoyb0jNSNeKzwC4HOLic8Xm/Y/K5uF7q6+w89brcXXV3d8Pv86kXDSgg/uroHDmFERER0rZEwM0ODeRMljE8AEvVAokFC6jgNbpypwYxkdfnLSULqWAkTx0qYOPKJi0bIqAk9I3UjHiv8Pj+6urrhdoeHnmgkJugxftxY6HRa9SIiIiKiy86YroFZL//s9Qg0tQm0OAE/AGgkpE/UwKh6DdGlGBWhx+lywePxQECg2+lCZ1c3vD4fup0udDt7txK43J5gq5DT5YLL7YHL7UGLox0trW3o6Ozq1WLkFwIdnV1oaW1Di6M9qtYHl9uD1jZ5nY62Dni9PnURdHY5+9yu1+dHV7cTXp8f7R3ytts75DI+vx9t7Z1oaW1DW3snfP7wsNdffT1eL7qdLggIeDwedHZ29+pCFno8Oju7w5Z5fT643J5gXT1eL7q6nfD5+q9TaJ1b29rh8XqDx79fAuhyuuT6ONrRFeGcer0+ONo6Ih7rQDe5wH7L14dct/6OExEREY1O4+OVH/wCdWf8OHHejy9sPpzuVObHSZg8NuQF8RIskzS45TotbpupxS0WDWaOC+mKNlaDnAwtbsrQYKpBQtZULW6dqcWt0zXICi0HQD9Og3nT5PUszNBgWuh2KGaNjtDjdMPt8UIAcDpd6O52wef1wePxoqOzC25PT2uGEEBHZxdcLjckSOjqdqG9oxOOtnb4/X74hUBXtxMtrW3wKzftPr8fza1t6Op2QkDA5/PD0d6JtvaOkFqE6+zqhqOtPXjz7XZ70NzqgNPlBgAIIeRA0dUFv98PAXm7za1twbDgVbrstbW1w+3xQADodjrR6mhHq0MODUIJfa2O9mAIGai+Ho8XTqcLAoDb40WX0wm3W64XAPh8PrS3dwJCyN3gurvR1h74FOndquZ2y6GnJVKdlH3xeLxoaWmD0yWHLa/Xj9bWdrR3dA0YNDweeXsQAn6/Hx0dnejs6gliTpcbza2O4DFye9THWu4m52jrRHtHp3J9eAc8TkRERDQ6uQPfbWokpKT2hJLGVj8aHAKnz/txzqnMTNbgRosGU5MlGLSARgMYDBLMJg1uSlNeqwUS9ECiXsKkKRpMTAB0GkAXJ2GiSYPZSnc5/XgNbjRJMMbL64nTS5hslmAI1oBi1agIPeOMY5CUmAANJIwfNxYTUsdBr4+HwaAHhBw4AjxeL/w+P+Lj4yAp17nf78fYMUlIHW9E6ngjxo5Jgs/nCz7b0tHRBeH3Y7xxLFLGGTEhxYikhAQ4Xe6ILUlCyDfiWq0WqeONGD9uLFJSjNBoNOjqckIIuYXH4/UiOSkRqeONSBlnxDjjGAi/Hx0dXSHr8kOn0yllxiLBYIDH44VOWXfKuLFISkqEz+eHR9nPgeqbmGDA+HFjoYGEpMQETEwdjzHJ4Z1QjWOTMX7cWKSONyI+Lg5ujwe+froO+vx+GPTxwTolJyXCp7QIAUBHVzcERFidEhIMvVrUIpKA8ePGysdx3FhotVo4XW4IIW+3o7MLcTodJqSMQ8q4sZiQMg5xOh06OrtUrU0CqSnjgtfHQMeJiIiIRqf6ToHAV9rGVA3uyNRi4TQN5iYBLQ4/GtoEHG4AkDAtVUKSRu45cqHRjwM1PYEocYyEGYFWI4VOCDTY/TjtEHJ3OQBjjRIACRnjJOiUeY5mP46d9eOCZ5TcENNlNarPcZxOB61WC5dbvkEGAJfbDUiAXh8XLKfVaqGP77ni9fF6aLVauD0e+P1+eHw+xMXpEBcXuMwBgyEeGkkDT0grUoAkARpJghACPr+8Ya1Gg5TxRqSMHwtJAjweD7RaLRIMSodUAPFxcdDpdPD4fMEWEkmSEB/fU9e4OB00Ggl6fU99tRr5NPiVlpDB1ldNq9WGvTYuLg7CLyD6CSgaSDCE1Ck+Lg4SJPj9cguKL0KdEgz6YN37ExenC5aTJAk6nRZCyIHQ6/FC+AUMBj0kJcVKknx8/H4Bb8j+hq5nOI4TERERXSEtfnx2XqDFDfiF/AVpXLyE8ePk0dxuNAVafySMU25P/C6BFgFMNACd7QIeyDdtxvEh6wXg7BQ43SrQ0Ah0KqlHvsWQkKTckvmdAscuCji6BKqalXVRTBv4jvUKkpRw4/P55a5PQsDt9kCn0yFO13OjK0lS8IY58DpJkm/YvV4fhM8Pl8uDxgvNwamp2QGfX76ZjyQhwQAhBJpbWnGxqRWtjvZgFzK/3w+fX/TaLgBoNBKEzw+/EpaiJ+D3y9NQ6ns5CSEglP0NFfgAuRRen9wlsa29M2x/2zu6IIQIPrujNhqPExEREUXP1ebHFzU+HLT68YVd4EIX4FUCUNI4DeYqIxkEbj80BglZytDSWRMlBL5Sjo8LvxfxI3AP1tPSo+Z2h9yntYGh5xowqkMPAOjj4yFJgMslP/cT6NoWDUkCJI0cTPRK1y31NHZs5DERDfp4TEwdD+PYMYjXx4U9xI+QN2AkkiQNPQsogW2w9b2cNBoJkkZu+Qrll5trwuYNlhxQgeRkuZugekpM6GlJCzMKjxMRERFFQ8Lc6fJAArdlaKCHQEurH1VnfThk72l10SeEv8rvFrjQFmHqeWw5aiHfnQPxV8ENMV2yUX+OdTqt3GXM65UHL9BIMIR0ZYMyfLM35Jt9r88Hv88PrVYDnVYHSSPB7/PJ/9dpodNpIWkkuFzuiC0Cfr8/OIKZPj4OY5Pl54UMej28Xh/8fgGdVgufzxc2yphfyC1LGo0GWs3QhoPWauS6Daa+l5tGo0GcTge3Wz4HAV1d3b1GeBssnU4HCRKE3x/cV51OC5/fD5fb3eczQ6PxOBEREVE0BLr88kACGr2EzJCBDPRxQPAOSsj/uJQe6xoJuHDej6rzftS65EELkvTyMzzREfAoty06g4RJyu3k+BQOZHAtGFWhR0DA7fHIXdJCLmCDPh4+nw9Ol0t5zie82oFWGI/XC4/Xi7b2TviFHwa9HpIkP3vi8fnQ1t4JrxJUHG0d6OoODAsSTqPRAJIEp8uFzi4nfH4/PF4vvF6v3HKkkWAw6CEE0NbRCa/XB6+yfp/PB4NBbp0aikHVV5JHiJOD2KWFj4EkJydCq9XA0d6BC00tsF9sgdPlgWaoO6qIj9NBF6dDV7d8rP1+P5wuN9raO+Byuftc/6COExEREY0qNU0CTuVWz5iqkVt9ZmoxP0WSb06FQEsLAAic61T+fk+chLnXaXHTNC1uniAHnkQd0NEatup+CFwIDB6rkTDdosVN07WYyyGrrwmjJvQYDPHQ6XRo7+xCc6sj7G+/6OPjoNXKuT9S1zb5wXiB5pY2NLe0wev1IikxMfhgfmKCAUkJCXC53WhqdqCpxQGfz4cxY5IQH9d7fQAwdkwSdDodOrq6cLGpFc0t8lDUyUmJ0Go00MfHYUyyPMJZU4sDTc0OuN1uJCYkIDHh0r4viKa+Op0Wen28XKbFgfbOnhHjLgetRoPU8UYkJyUiLk6HBIMe48eNgRTFQAYDMY5JQlycfKwvNLXC0dYBrUaDsWPH9HqOKFQ0x4mIiIhGoQ4/jl0Q6FI6Zmg08gQA8Ak0NArUKJ1LHI1+VDuE/LyPFkiMl1t9/B6Bc41+1AdXOrDGc340BL4b1QCJcfLAB47L+90xjQKSUJpU9uzZgyVL71UvvyTW6hoAQNbMaepFg+Zo74DH40PKuDFyS4yiWXnGJmXcWPj8fgi/gE7Xd9cyr9cHSIBOCVEDEUIevUzSSH2OVOb1+QAhB5HhNtj6Xi6tyt8sGmccE6yLy+1BW3sHEgwGJCepOt4OQeBYazRS2DmOxmg5TkRERFerKuW+LfMS79s+qR3c72J9ooSxyjM2fi/Q1NVXdzUJxjFAvAR43QItl9KxwyBhYvzQ1nNLBrvQX0nv73sPDzzwgHr2gAZ3Z3kFtHd04kJTC1wuN/Txun5vhrUa+dmO/uh02kHdGAeGWO4r8ADyjfZA2x2qwdb3cklKSAAE0NTiwMVmBy42tcLR1g6NRoOEvgYbGKTAse7vHPdltBwnIiIiGhxXV8+gBH0HHgAQcLTL5QYbVHpxDtN66Kox+LvLERYfH49EgwHGMcm9/gAnACQm6Pse4YuGTVycDikpRiQnJMgDB8Rpg3+Ytb9ASERERER0pY36u1V9fBySkhLC/phnKINeD4OeoWckaCQJSUkJGG8cg3Fjx1zys0tERERERCNh1IceIiIiIiKiS8HQQ0REREREMY2hh4iIiIiIYhpDDxERERENG03ff2LvqhfL+xbrGHqIiIiIaNiMTehv2OmrWyzvW6xj6CEiIiKiYZNuFDHZIqKR5H2jqxNDDxERERENm8R4gVlpfoxLjI3wo5GAcYnyPiXGM/RcrSQhhACAPXv2YMnSe9XLL0n1qVoIIZB5XQYkKQaueiIiIqIYJISA9VQtJEnCzOsy1IuJRo33972HBx54QD17QJe1pUcfHwcA6OzqVi8iIiIiolEicK8WuHcjijWXNfQkJycBAJpbWqE0KBERERHRKCKEQHNLKxBy70YUay5r6Bk/3giDPh5Opxt15xrQ0dnF8ENEREQ0Cggh0NHZhbpzDXA63TDo4zF+vFFdjCgmXNZnegDA4/Hg/PkLcLrc6kVERERENAoY9PFIS5uIuDh2b6PRbVQ+0wMAcXFxmDp1EiakjodBH88BDYiIiIhGAUmSYNDHY0LqeEydOomBh2LaZW/pISIiIiIiGg6jtqWHiIiIiIjoSmLoISIiIiKimMbQQ0REREREMY2hh4iIiIiIYhpDDxERERERxTSGHiIiIiIiimkMPUREREREFNMYeoiIiIiIKKYx9BARERERUUxj6CEiIiIiopjG0ENERERERDGNoYeIiIiIiGIaQw8REREREcU0hh4iIiIiIoppDD1ERERERBTTGHqIiIiIiCimMfQQEREREVFMY+ghIiIiIqKYxtBDREREREQxjaGHiIiIiIhiGkMPERERERHFNIYeIiIiIiKKacHQI0kShN8fvpSIiIiIiGgUEH4/JElSz45KMPQkJiais6srfCkREREREdEo0NnVhcTERPXsqARDT2pqKi5euBC+lIiIiIiIaBS4eOECUlNT1bOjEgw9U6dORV2djV3ciIiIiIhoVBF+P+rqbJg6dap6UVSCoSclJQUmkwnHjx8PL0FERERERHQFHT9+HCaTCSkpKepFUQkbve2GG26Ay+XEF59/zhYfIiIiIiK6ooTfjy8+/xwulxM33HCDenHUJCGEUM88evQo7HY7pk61YMLEiUhKTISk4ejWRERERER0eQm/H51dXbh44QLq6mwwmUyXFHjQV+gBgObmZtTV1aGpqQldXV3ooxgREREREdGwkSQJiYmJSE1NxdSpU4fcpS1Un6GHiIiIiIgoFrDPGhERERERxTSGHiIiIiIiimkMPUREREREFNMYeoiIiIiIKKYx9BARERERUUxj6CEiIiIiopjG0ENERERERDGNoYeIiIiIiGIaQw8REREREcU0hh4iIiIiIoppDD1ERERERBTTGHqIiIiIiCimjXDosaNyTwlKPrDCoV4U5ID1gxKU7KmEXb2IiIiIiIhokEY49FRi+3dWY3XBSmw/oV6mOFOMVQWrsfo721GpXkZERERERDRIIxx6Amwo3h050lh/vwNW9UwiIiIiIqIhkoQQQj3z8inD2rSVODLVApt9Ed49tQW5utDlldiaswTFMMFuz8XO80VYFFzmgu2DN7Djz1Y4YETm/Y9i1T0W6ENe7TpThjfeLIG1E4BpPh79dgGyU0IKNFei+Fc7cMQOICkTeY+swqLpoWsAXNVleOO3/awDgONYMba/eQR2AKa7nsK6e1w4/IETWQ9kwxQoFLqtSOvxOlD57nbsOGIH+tgfIiIiIiK6dFekpWf+g/mwuIpRcki14EAxttstKHg4V7XAgbInc7CwYCvK7QDs5dhasBA5T5YFnw1yfbAeObetxNYDjQCcqHprPZbMXYLt1UqBM9uxZO4SrH/bBieAxrLNWHlbDtbu63m6yPbOCuTk9qzD9vZ6LLltLcpCHkCy/tcyzFq8Hts/awTQiLInFiLnWxuwIbQ7XnXotpT1hNYFNmzPm4UlzxTD1gnAXorNqv0hIiIiIqJhIkZUqSg0m0Xhe43ijfvNwvzoLuEMWbr/3yzCfFeRqH2vUJjNhaJUme/cvUqYzbniZWtIYevLItdsFqt2O4UQTrHrm2Zh/sZO0RpY7qkSL9/Vs42KH2ULc/YmcdgTKNAq9q6xCPP8LaJKCCE8ct0W/KgiUEAIT4XYMt8ssgPzGneK5WazWLytKqSMsp1gfavElvlmYVmzt6cu6m19tkVkm7PFpiM9q2ktKRQW8wKx5XjPPCIiIiIiunR9hp6PP/5YPPbYYyIrK0vodDoBYMBpYIHQI0Tjr/KE2bxK7OpQFimhI+9XjUKoQk/p98zC/M3wgCREo9iZbxbm78mlSp8wC/NdL4uq0EIdzuBrarflCrOlUOxtClnudApnMAQJIYRTOMNe3yp2fdsszE/I23DuLhBmc0FPnRXyfKW+tiKx2JwttnwWXkb841lhMS8WRTYhxOkikWu2iMI/9cQiIZzCqVpvX9THnRMnTpw4ceLEiROnWJl0Op3IysoSjz32mPj444/Vt8JDErF725o1a/DQQw9hxowZ2LVrF7q6uqAEpH6nwTA9tAqLUILiP8gDU7v2FGM3clHwQPCpGIUNVZ8B2LcWGWlpSAtOOVh/AMDxKtgALPreS1jUvBV3ZmQgJ3cF1m7cjpLqns5ilpVbUDh1N1bPTcOsm5Zg5TNbseOILWxLcDWi/PXNWHlvDnIy0pB23Sys3dOzuLHBBsAIY1LoiwB9krHnP8crUQk7Xrk3tK5pSPuXHXChElYrgOkF2PKYBbu/Mwtps3Kw5FvrsfXNw1DVpk/q486JEydOnDhx4sSJU6xMXV1d2LVrF2bMmIGHHnoIa9asUd8OD1qv0HPffffB5/OhuroaP/jBDzBv3jzExcWpi126pDwsvx8of7sEdrhQ8ocS4P4CLFdnHhhgTAXwQBEqKip6T2+vggUAZhZgZ0UtTn64E1u+PR+GM7ux9t4c5DxVBhcAGHOxsfw8aj99H0U/zEdW5xG8/PU7kZG3XQ4b3iPYvGAhVv62Ctnf2IKi9ypwsvY8dj7YUxPLtGwADjg6e+YBgN0e8heFjEbokYmnSiLUtaICG+8AACNyN+/H+VMVeH/7JuRPd+LIz1fgzuuWYPuZkBUTEREREV1j4uLiMG/ePPzgBz9AdXU1fD4f7rvvPnWxQQkLPWvWrMHUqVPx2muvXZ6gE0aP/IfygU/ewK5Du1C8D8h7IC/C6GUmZN9iAj6rQmOKCSZTYAJshw6jst4JwIbd37kTK15vhHF2LvIeeRYv/eZ9HP7RfDje2YVyuHDkx0uQ81wZ9OnZWPRgITZufxcVv3sU+qPFKDkD4JNdeMOeiWd/uxPPPpKH3NkmGPV22E6HVOWuxchDGbb+e3nPgAOOMmz69/KeMvMWIBdWVNr0IXU1wdRWhfJDVXAAcH2yFUtu2oAyvQnZ9+SjcHMR3j38Lh7VV6L4L9G29xARERERxba4uDi89tprmDp16iW1+ARDz8GDB/GXv/wFRUVF4SUup3sK8Kjeile+tRnlyEfBA70jDwBkP/oscutewcrCYlibXXA5bCj/8Uos+85mHPYZAVhgMdlR/txqbD1gg6PTBYfditKPKoGpFligh8VihP31tVj9jhV2hwuuZhvKy8rhQhbMJrmFxgwbqirtcsuQy47yH6/Ehk8AnK6Sh7BOysdLvymA880VmDUrBzk35SBj1kpYp2X2VDYpH+tWG1H25Mqeupwoxuq8FVj7ezuMekA/yQJjww6s/W4xrHYHXJ0O2A6VodwFZKWbQ/aciIiIiIiKiorwl7/8BQcPHlQvikrw7/SsWbMGM2bMwA9+8AN1mWEk/50e/OY8ipbKc448l4Flr7ugf+Rd1G5VhqretxZp30LY3+lxfLIdax/djLJATzJdJgp/sxcb71Gep/FaUfzd5Vj/55CuZul5eOn3r6NgJgA4UL5xBVb+V6UcagBAn43C4nex8Q6jsnwZVvxXz59GNT1YhF0PlGP5t4phfP6f2L/WIi9orkTZn0pQcsaIRQ8WIK9+Q3h9vXaUPLscq98KWdc9W7Brx6PIVHKd48BmrCjYjsqeyiD7sZ14d3MuQp4QIiIiIiIiAD/96U9x+vRpvPrqq+pFAwqGnlmzZmHXrl2YN2+eusyo4mq2w+HVw2gyRugKB8DlgN3hAvRGmIwRSnhdcDQ74NIZYUqJsFx5vd5oQq+XO3Zj5ay1wCsnsfOhQDRx4cgLd2LZnnzsP/wsQtp8etaVZOo1+EFAcH9SjNCH/aFWIiIiIiIKOHbsGJYvX46TJ0+qFw0oGHri4uLQ1dU1As/yXN2s/7UMd248Ar0pG7k3ApWHKmF3mFDwm/14aSnbaIiIiIiILgePx4PExER4PB71ogEFQ48kSVB+pAG4zpSj+Pe7UWkHTPPykPfVRchOUZciIiIiIqLhNNTMwtBDRERERERXhaFmll5/p4eIiIiIiCiWMPQQEREREVFMY+ghIiIiIqKYxtBDREREREQxjaGHiIiIiIhiGkMPERERERHFNIYeIiIiIiKKaQw9REREREQU0xh6iIiIiIgopjH0EBERERFRTGPoISIiIiKimMbQQ0REREREMY2hh4iIiIiIYhpDDxERERERxTSGHiIiIiIiimkMPUREREREFNMYeoiIiIiIKKYx9BARERERUUxj6CEiIiIiopjG0ENERERERDGNoYeIiIiIiGIaQw8REREREcU0hh4iIiIiIoppDD1ERERERBTTGHqIiIiIiCimMfQQEREREVFMY+ghIiIiIqKYxtBDREREREQxjaGHiIiIiIhiGkMPERERERHFNIYeIiIiIiKKaZIQQgCAJElQfhwRrU0CnW2A2wWM4GaJiIiIiOgykyQgXg8kjQXGpUrqxUM21Mwy4qHH4wbs5wRcTvUSIiIiIiKKNXoDYJosIS5evWTwhppZRrx7GwMPEREREdG1w+WUM8CVNKKhp7WJgYeIiIiI6FrjcspZ4EoZ0dDT2aaeQ0RERERE14IrmQVGNPS4Xeo5RERERER0LbiSWWBEQ88QnjkiIiIiIqIYcCWzwIiGHiIiIiIiopHG0ENERERERDGNoYeIiIiIiGLaNRJ6bChelY7bt5SpF4yMjx/H7V95HAfV86+EYapL/e++jNtXbUe9egERDYv6330Zt38lHQW/s6kXXT6X+PlwcEs6bv9Kz7TpY3WJWFGGTSN9bvpxcMtI/36T939kt0lEdGlGSehRPkAv4ZctXR1GLizJ11Ts3nRRD57r0aD+d1/G0/vy8eLfGvCxMm26XV2KRjf5C8Jow9y0GZnqWUREo9YVDz3yN4O7kbWGH55ERAGTvv53fPy3BhR/3aJeNArZ8OF7Vkxb82+4Tb2IiIhoFLiyoefjx/E03sLHf9uGu9XLiIiIiIiIhsGVDT23b8PHGxap515WYX3OI3SzUvdJD2/m7+lGE+hvf3vEfs2B7nrK9Nxu1fJoqdbTqwuP8qxSn/VF73VEqsu57SgILRPhuKjLrHjVqi7Rr8BxXfGqFTjzAlb0uU/qfY7Q5VFd39B1BJc9jH0A9j03wH71of53X8btW8p6rgfVzz0usb6DKBN2zfWqByJeD73rFEV9R0TgvaSqs3qfeh2XL6P4nHrZpZ1rhHW7DD0+IdtSqD8f1OcIkc6Tui7qfVIv//jx/rehLFfPl7cbfj4Hrm8Unw/9Cdb1VvzyDFDz6q0R9yv4zEnYvquvvd7Xb8/nmbxs08c99Q3/OWxFfQq8r3vr3a1r4GMHZE1F/9ev+vhG+oxWne/exwUR1xOpPgHBa1B1bfW9T4H1RziPEeuTiazp6nlERKPblQ09I23fw/jFjENKf/O3sPTMC/i/Ib846n/3Zbx3V09/9I9/lI+aV2/t9ctl33PpWHF6o1zmrecxbd/Dql8eD6NqTWA78noG7dx2FHzlYexb+lbPesL6yNtQvOpW/DIzZPlbzwOv3hrySzWKupzbjoKHX0DWj3q28WLmC1gR+ssyQpl3B9kd8bYNIa+b/jzejbhPvev77ppKPK2+aVfVJWwdkwtR/LcG+fwCWBpa7o1CTAquJwqB6+VH+cC+h+VWyR/lA/t2K/UZhvpGW+bjx/EMws/1tH0Pq27SbsUv0XNs5XOUjxf/tk3pchRNfUfWvuduRdW3w/cpLMD2uu6AXz6shJHhPNeAEsY3I+steR0vLrXil/87/Mb9aWvItfvW86h6Lvzm8+CWdKx4FXhCWUevukTYp17vt9u3Kcvk/erl9n/DE9OBfR+F3mD37l42cH17Xw+9Ph8GEqzrITwxHZgWui71Odj3MG5/+BieDJbfjaeDISGazzNg33Py+XlxKbDvuYeBHyk/hx2Lvk2amg1YqyIEYiuqzgBZU+WuhAMfO9m+527F3nuVfVZfv7CheJXq+Kq7K378OG5/rjLsenlx6e7w9+SAvwtCyeFtxavZ8rNVIeeg/31ahE3B86I6j8HPDyKiq9u1FXqWvhXyC0f+pqqqrucX6qSv/z38F8nt+ZFvOpa+1dNCNTkPy0LWU/+7zdg3/Xn87BL74R/8zQuomf483u2rJezjn+CXZzLxxLdClk8uxM/WZKLmvRLUR1mXg795ATVL3wrb79u+9TymnXkbHyrfckcqczlEqu+kr2/EUuzGe+qbjShvci5NPp4M1iUfL6rOxXDXt98yt28Lv1lSrrseNpyxAtPuzQve5EzK/QamoRJnlPM4mPr2r/e3zupvlKM1bc2hkMCahayQZYH3wHdDrrtJX38LT0y3Ym+5ukVzOGTiibf+joLJ8v9uuysfOHMMtZBvPH+xLxNP/HvIjfzkQjwZesN9bjt+sQ9Y+qOedahFei+p328Ds6Dg26HhG8C5Euw9k4llucq5jaK+ka6Hyys0gFtw972ZPQEkis8zAMDSjT3HdqifSSHntCCsNS8TWRnRHbuAaWsO9bwv+ygTVv8wNhT/anf4PgG4bcNbYe/JAX8XBOx7WG6pyZS7jIcFlUHsExFRrLq2Qs9A1N1OlG4zauEj1lhQ8EbPt3e1p61AZtbgv2WOZMD1ZGN6pJsr5Zd61HXZ93D4DezDL6AmuFC5mR6pUXpUXd96n4NF2PS3t7A0tM69upSMoGGpbzRl1EFD7obSw4LpmeE3WPXlb6NGfY0MWN9oBL4VDpnU3+oPlz6u35rTg+teGR3Vsbp9m+rm0YpfPhx67NLxdK+Dp9w496ff91uUbs/HUuzGL5RWEDlMhd88D1TfqD8fhsv0eQg9NJO+/nfVddP/59mwyJgX/CKgvvxtYDrkAH2uClVh2+//2PUr2JJkQcEbh/AEQt5zEb4c6OuzNfQLuajO09Ln8cR0hIfhMJewT30ItIwREV0NGHqC5C5GCGvW76N7ST8yZoR8e3mlKDcXUddF1W1CngLfVis305flJjMCVde3yF05Qm+6lbDQKySMkGGrb39l5G4y4d1b5G4ovYSEGrmLi+ob36jqO/r1daN4eWWGd1sLTAN9A6/W7/stWovw3WArSBne2wcsvUtdj/7rG/Xnw5WmCkuXJNiaaMOH72XjyX//BvBeCeprj6EmbDv9H7t+hQUU+Usx+fVKAIoQfCIZfKDIkkPW9N14OuI2LmGfepH362r73CCia9vVE3qCD3uO3PMHB7cM/lvwSVOzgdCuKh8/PviHgwNda1TPbIRRvunt6RMvt1Q986oVS78tf3saTV0C21H3VQ+VMSMz7NvD+t99edADGQT0qlPostxvYNqZF/BMX/sc0SLcGzGZyt0XL2fXjeGtb6iBy9T/7uHwlp5A95Wwm5rwwDO0+l45ka5Neb9Dux1iRM613J0w/BmfXgJlHu77MyrSPg3VpK9vxNIzb+PD3+3GPlU3wGjq2+u9GOHzYcRE8Xk2PDKRNd2KqvIS7M3Mx22TC/Fk5tv4sC4krERx7CL6+HE8vU/VRS+M0qVP9f+aVx8OGzDj4JaHw87ngL8LwlhQ8Ib8vGpYuIp6n3q3GEcU6BXR68sbIqLR68qGnpDuZPJN9G48rfx/OG4KBkf55jRk1JpfzHgr8rfp/bl9m/KwtdKF4Ffz8O5bz2OautxAbt8WfJA3tDtCz3GJ0CVKeUA6+O1bNHW5fRs+/lF++MhXXwnvhjHp639XHq5VztXpjYN/4Dng9m3yA+Ih3SyC+zS5EMUR9jks6Pbqgqg8nNvr20oLCv5dfrA40j4Ni+Gq74BlAs9w9OzLitMb8WJoMJpciJ+FnuuQaVDHdzSJcG1GbL0aiXMdqauS+vgq336Hvld61SXCPqnL9IywpRqVrtcN5iLcu9SKX766O0IwiKK+0Xw+jJgoPs+GhXxTv+/Vt7FMCSe33ZWNX766O6T1MIpjpwTtsFHOngNeDGuxU3dJVa7fkC59k77+9/BzEHjvh3b7G/B3gdoibHrreUw78wJWBN/b0eyT7LYNSmgKlhmlnw9ERIMkCSEEAEiSBOXHy+b08cu7fqJrVnAUqPBuUnKrXKSgQERERDTyZsyR1LMGZaiZ5cq29BDRZSQPYzysz0QQERERXYXY0kMUIw5uiTAaU+jw6kRERERX2JVq6WHoISIiIiKiEXGlQg+7txERERERUUwb0dAjXVqwIyIiIiKiq9SVzAIjGnri9eo5RERERER0LbiSWWBEQ0/SWPUcIiIiIiK6FlzJLDCioWdcqgS9QT2XiIiIiIhimd4gZ4ErZURDDwCYJjP4EBERERFdK/QGOQNcSSM6ZHWo1iaBzjbA7QJGcLNERERERHSZSZL8DE/S2OFt4RlqZrlioYeIiIiIiGgwhppZRrx7GxERERER0Uhi6CEiIiIiopjG0ENERERERDHtij3T09Il0OEC3D4OZEBEREREFEskCYjXAsl6YHziNTiQgccHnG8TcHnVS4iIiIiIKNbodUDaWAlxWvWSwRtqZhnx7m0MPERERERE1w6XV84AV9KIhp6WLgYeIiIiIqJrjcsrZ4ErZURDT4dLPYeIiIiIiK4FVzILjGjocfvUc4iIiIiI6FpwJbPAiIaeITxzREREREREMeBKZoERDT1EREREREQjjaGHiIiIiIhiGkMPERERERHFNIaewfjwceRmfxlv29QLhpsNb38tHbk/LFMvGH627Vg5zPt08IfpyM3umTZ/qC5BMe/Dxwe8Bhre/HJImeG9Bq+IIX4+NLz5ZeR+bTsa1AuioRznSMeXiIiIelz50KO6ObpcN/rhN1j934zR0DW8+WV8f08+/qOyAeXKtPFudSkaneSwvfJN1V27bTtWDva9cvc25fy/hSXqZYr0R/4ulyl5HhnqhcPpMgT70SUTWTPU84iIiCjUlQ09tu1Y+WQlHi8J3CC/hSV7Hu590zVswm/GeUM+3Gz48I9WZDz9b7hNvYiIiIiI6Aq5sqHHUoidlX/HNyyBGYuw9AGg9o8lQ+vqQUREREREpHJlQ89opHTl6fdZg9PhZXp1+4lmHVHIyMoMfz4mQr9/9fMzkVrJenXti7CeHmXY3Nd+9SXYRfFWbKsGal+8NeK2Dv5Q6b4Ydnwex8HQdfV77MqwOfvLePvDQBnVz713vV+9jou6LhGOb/gxkY/V5g9V6wp20VSOpbrLZqTuYur9Vp2jnuc+es5P5H1WngeLuGz4qI9dpOtuWKiPy2XcL/U+hZ63hje/jNwflvVcD6qfe2RjGgb3+fDgi1ZVgf7rEmbGvMvbNZCIiChGjLLQU4Z9e4CMf8lDunrRsNiN7/d3A/Xh48jNewF4+lBIF7jQligAsGLbk8fwhLL8909n4v2fh9yg2rZjZd4LyPpFTxe63z8NbMsb/M1a7Yu34vt4q6frX/ULeCbk5rLhzS9j39KQ7nq/yEfti7eG3WQd/GE6HnwRIV0IG1D+h8LIx/fDx5Gb/TCqlP2Puutf8PmNQ3h8JpARevzU29rzMHLzAsfvEB6fuRvfD9zQRXXsAsf/EB6facW2J9/GshL5570fDOIAf/g4HnwxW9XdcVtYt7yDP0zH948/j98Hlpc8j6one9/Evv9kOh6s2hgsk7HnYaXMInz36Uxgz+6wMNXwwduonfk8vhs4vhH2+z/mvIAH1eG0+gU8mL0ZWcq5/I8HrNj2vf4C7NCEhdbsdOTmvYDakOUNb35ZdezeQtaLtw5/8IlwXHpfD8Pkw8fxTPC91nMew/Zpz8P4ZdYhlP8iH9jzsPze/EW+6vzuxvfz3sYy5Rz9/ulMvP9kSJiOuE+ZwVcDUdaFiIiIBmUUhR4b3v7aw3gf+XjikbCUMYzUz/SEBhob3v75buCBt7Cz3+1n4vGSnpvj9GnZQPUx1Cj/P/jqC+E3tADSH3lr8DflAPDAWyj/8SLlP/INdGjXv/RH/h4eTO7OD39o3LYdv9wDLPmFOripWbEtLx25yvNV/e//pcrHfwTDhQV3/0smcLwKDYM4dqHPDGU8/dYA+9af3din/hY+wLYdv9yTicd/HhLaLIV44gHg/X2qb91Dz5MlD8tmAlU1cn3TH9mIJWHbUZ57Cgn2B199AbUPvBV2Lm9b8zwyqt/Gh2GXTCYeL+k5l7ctzQ+79mQWfOMP6mt7cMJCa+CmO7i0DP/3RSuW/CI0IPa+NodDtNfDsLh7W/h1r5zHcKGfTfn4j+B7M1T4OVKf/0jnupeo6kJERESDMUpCjw1vf+1WbKsOvSG+MjKyVN+6DsWcrIgtKbVVvbuxDFroTW6vrj8P4/3w0lGO7JSJx5/OB3AZbibVZs7DtJD/pj/y9/DWoMt57ELdvQ3lv8jH+0/20w0pEAZDjvH396jLqK8ZOXT03LTKz6kFWwM//Am2VUcI9nse7rd1RZaNaaEvu3tbr9apkRJ63HL76KI1LEbqegjrNpge7Ko5XOQQbEPNcfX1Eslg66K6LoiIiKiXURB6Rk/gudwGvtmJQjA0lGFzr654fQ8PPKB75BCg7h43WgzLsVMLdsuTuwa+36vrWmZ4t8DAFPEb/r6Fttoc3LcbeCC/93X+QEh3pogtkaPLkpDuWcFJ3ZXxMhre60FpZQ47B3JXzeGSNc0CwIJpcwYKbIOsi6UQO2P8c5OIiGg4XOHQM4jAE3xYvvfD5sND7mp1qTf9ty2V+/uHrqPhzYcjf7s/GLbteOZFK5Z8r+8by4M/VLX0WPKwbKYV2/KiPGZ3b1OeQVDf/I+My3bsoqHuGhg4dsPxzIylEE88YMXeD7Zj355MPL4mPDRF2u+hu9wDGSgtV6HPqVwmkY7LSF0P8nbUcwfv4A8fxvshXfSmZYU/4yU/H9VfCOq/LoEBD4bn2iEiIopdVzb0fPgT5Ze5eoCByzUaVO/thN4spD/y915dngZ98xih25T80PcAoS7M/9/eHcZGcd55HP+t7ZZCqkqX6uRLtU6Q19gVF16BxEVFYOwjDbVcgeVIjYrSGEPqNEjnhCLzgmA5WCc7VlJeNI2DcUyrnK5SLINiGUhcExtRcZHMq3DobDACvGpknZqTqhZKAO+9mNndmWfX9u7anlnvfj/SSvbM7M4zz4yl+e3zf8bWN8Kukid7cnR8LoA9j8Ix6fzX5R8a3whbpVZdtcZxmxPkHZ546aK6aq3ypeU5B/NYkr5LTcLTsewHOMT790m9cPpzvao39fw810yqnnm2TrffflPDta2JozdJjnuh8+SnZ/49yTVl/M3Gn3pnBfHYscWeQhYNZ9FSvngpYexzkvRL5tdDYqlivC1P6oV/swJWbD+TreqqNT5iIaVP6yljP4f0oWsEzPr7ivfd85Ot1sMQYpaoLQAAwCUQiUQikhQIBGT/uGxu/O/yfj4AAACA7FX2jwFzUVoyzSz+jvQAAAAAwDIj9AAAAADIaYQeAAAAADmN0AMAAAAgp3kaegKLm7cEAAAAYIXyMwt4Gnq+WWguAQAAAJAP/MwCnoaeb68ylwAAAADIB35mAU9Dzz+sCWhVkbkUAAAAQC5bVWRlAb94Gnok6Z++Q/ABAAAA8sWqIisD+CkQsf+laab/3TRT/3c3or/el75+JHm4WwAAAADLLBCw5vB8e9XSjvBkmll8Cz0AAAAAkI5MM4vn5W0AAAAA4CVCDwAAAICcRugBAAAAkNN8m9MT+fpP0sM/S7N3JXm3XwAAAADLLSAVrJGKvqvAN79nrsxYppnF+9Az+3dF/n5dmv2buQYAAABAril4TIFvrZMKvmWuSVummcXz8jYCDwAAAJBHZv9mZQAfeRp6Il//icADAAAA5JvZv1lZwCeehh49/LO5BAAAAEA+8DELeBt6Zu+aSwAAAADkAx+zgLehh6e0AQAAAHnKvyzgcegBAAAAAG8RegAAAADkNEIPAAAAgJxG6Im5olfLdmnryRlzRRLWtk+UvaMRcxUwlwvv6ImyXfHXoSvmFivAjN770UptOwAAyFc+h55oeFjmG0HzZtP1OqD3bptvAJbY7TPa+vJF1Z04oy9v2K+ujeZWWcL6u3z1grkcAABgZfI59GzUu9EbwBtn9OWNN1R3+liKoy1pqHo9vo8TWyVt1Yexff5arzxlvmEh0Xa/rmpzFZDEneE/6Hr5S2qpMtcAAABgufkcekwbVbdbuj4RNlcAAAAAQEayK/TcPqO201LdTj/LfsLWnIWk5Xb2fIbouh+d0R3H2rjEsr20Rq8uvKMnfnRGIycPxPbj/Nm5z5FD7v0kliSl0JbbZ7TV2CbhcxK2SZzPZLbFernLB81tEvaTIvNzEsoi52vvkvbvfOJ9v7kjLE2e0uZk/XL7jLbavzv3Z54nsy3OY75z8oCeOHQlvo3xc0pifXZMA5IGXnbsK8m17mpPkvV3on06x/GkJoPr12jLnZMH7GXOz3L0v13+ap5bq/3u69w8B+73xMsCXceeav8DAIBlkwWhx3EjUn1KOvy+3vWxBOh6xzFd/aVd+jbyktad7nPctBfrlbPWus8PB91vjJnRez86pi8Ov+8o2zuji/uKzQ3nN3lKeyYarDZMntKegX/V5yMvad3kHzRkt2fk0C7t+e+X9Hl0PyMv6YuXnTdiqbTlil6tPqUNzrkmN84Y5+CKXn1FjpLA93W0/KL2OG4u75w8oD2nHWWDJ7ZKCuroSLx8cOH2psIKnq593TDnxyzc3qXp34XEyzc/PxyUyh2flVBWGdab1bvUVmGfqxNbdb3jWOzaS2iLXQrquqE+fcx6/4mt0ulj2qM37J/HEgJqUk/t0sXoZ0vu+Udnd+lJ57bRfUW3nzylTke/3Dl5QJs7Sh3n4A1t6Ph5YmCZVwrX7+0z2mpcvx/+8yltNkPY5CltLuvT0yP2NrvDevMVe5uqn+pouTRwzv0Fx9BAWOsO/zRWwppwDua4HgZe3qXNEw2xbdadPpawDQAA8FYWhB7nvJ739cLAzxO+qfXSOmfoeqpEGxTW1SljoxRcH7i8yGMI6uiB6I18UEffM246b59R22lj+VO71LrbvHlLrS3me9w26l3XTW+xaurcoe/6RFjavS0+x6lqm+qcfZdGe+d14T/05mRQR0fmm0+1cHuXsn+XyrrD78dv6J39Fx0B/aWzjRv1bkKg2arWWCDYqg+X80EJu99whI+gni6XvrgZDTRX1NkRVt0J5znaqJbDwZSuRdN87xn59Sld3/2GK6RXH3CHV4s7gFfv3CpN3tR1yfoy45dGX96+rP+cDOqFHfYxpnM97H4jHsKfekYvuPoGAAD4IQtCj1OxXnkv2Q3LSlKsV86+r6NylDItW4izRgec5TZ7TjvXp9KWjXo3OmowTzmOWdazucM972pdRdB903hhTAMK6umQc6uF2puqUpUv8PCJhdqbmqVqb2o2lDpH4KwvA+I382ZfRt3UZJb+rbjK4zI6B6lcv9aok3M/T1SfssOMk3HNVL3ufhBJ1TbV6aLa7JEoK0w1JB2NW+h6WFfhDNjW6HDaI70AAGBJZVnokTR1U9fNG5QVJ14G9+UN+6Yt2c3aogV11C7Xcb1c3/Cn0hbnaFti2VRC6dqc5X0XtSd6Q/jyTdc365ZU2rt4qbd3Id60d3Gy92/FVR4XfZllcgtK4frd/UbifhLKBxfiHIm6ooGkcwtXwvUAAACSybLQc0WvvnzRXSYVFftfO4kT6LNbstKqJfDUM3qh3DEvISWptMV6gt68bp/RHte39tFypnluOjNqbxL2N/Ku+TkLSWhvCpaqvUshaVusvxXnnJOlY5WrJZRtpcy6hgZeXuq/1cTrt3qnNX9pKebMPLmvQXWTf9DQyTENmI8XT3oOAADASuFv6DGfulR2TDqRxd+cOtrrfhqX8wlliU+b2txRqg/T/oZ7IUlKf+xX/AYwhbYknAN7srbjHDy5r8EKGtFtqm+q9cTW2Pro/BKznOkJ15O2UmlvKjbq3eg3/s7PcYxMLdzeVCxVe5dCsrZYE/yXp2zKLjN1lo2lEzIlVXed0Ye7HefAfqX3IIMUrt+q1/VlsmsvzfZaNqpud1hvdlw05k9pjnPg1/UAAADSFYhEIhFJCgQCsn9cNpG//pe5CLnA8QQt11PfLrwzR5kbAAAA8lHg2/9iLkpLppnF35Ee5LSRcxezes4JAAAA8gMjPVgS1v9lMebNlL+kz5e8rA8AAAArlV8jPYQeAAAAAJ7wK/RQ3gYAAAAgp3kcegLmAgAAAAB5wb8s4G3oKVhjLgEAAACQD3zMAt6GnqLvmksAAAAA5AMfs4CnoSfwze9JBY+ZiwEAAADksoLHrCzgE09DjyQFvrWO4AMAAADki4LHrAzgI08fWe0U+fpP0sM/S7N3JXm3XwAAAADLLWDN4Sn67pKO8GSaWXwLPQAAAACQjkwzi+flbQAAAADgJUIPAAAAgJxG6AEAAACQ03yb0zMze19fRR7qXmRWER5kAAAAAOSMgAJaHSjQ44EiFResMldnLNPM4nnouR+Z1c3Ze7obeWSuAgAAAJBj1gQKVVqwWqsCiy8yyzSzLH7PaSLwAAAAAPnjbuSRbs7eMxd7ytPQMzN7n8ADAAAA5Jm7kUeamb1vLvaMp6Hnq8hDcxEAAACAPOBnFvA09NyLzJqLAAAAAOQBP7OAp6GHp7QBAAAA+cnPLOBp6AEAAAAArxF6AAAAAOQ0Qg8AAACAnEboSWK8uVw1wXJ1DZtrHG71qilobVcTLFdNda9mMtkGK0BYA9WO8xjcqYFb5jYAAADIVlkUesbUtVw3lGb4WPR+xtS1pVM6ckFD4UnrNdKo4rS3yRZW388b8lIxfFA1wYMaN5evcOPNVepViz6InsfwOdWtNbcCAABAtsqa0DPevF+jFSGVmCuWTEiNl6I3rZP64IjUuyX5jf6m49Y2h3aYa2zDH2tUtdrXFDTXxKWyDVaAMX3WL1UeztbACgAAgIVkR+gZPqjW/lq19daba5ZNcdM5tdVLox2UnAEAAAC5LAtCz5i6GgZVcuQ1bTJXLbNNNbXSRL/+aJe5zXTvnKf8zTGvo2FQ0qBaHeVy1ohRKtvYzJI7Y77PTPdOe1m07C9Zm+Lzj5LuI1puZuwrtk1s+X6NShptmLs984n1W5JjbuoOO7aZq/12SdxC7Y1aoO9SZfZdTfNYbF38WkjSN47t5jemruBODQxH22v87OyLFI7JfX2WJy0lTDimhM9xXk9J2qHoeTA+x3EulaQtznUAAADZxvfQM9PdodGKFrX5UQa2br1KNKWp69avxU3nrPK3Sy1JyuyCqhuxy+P6aiXVqi02xyNaCpfKNvYN7pZOhfri69o2dGqveYM60am9wQ6F7LK8tvop9TbGtxlvLlfrF465JpdaNNVghoRBtW65pn2xsr6QRhvsm+W1jeoOT2oo3KNKSZWO9qQz/yjWb0mOuds+r8VNh1WpKX163nlzbJeO9b3tCLyDat3Sr2ftY3a1V2n03QIS+i7co8r+/bFAEzumZH1zfJv5cfOYUm/DNe0LX1BjxZR6G/r17CXr51hfpHJMwwe1t329q2+Hws5+s4KI+5jM8xjWQPXH2u5Y31Y/pd4tRv82DDqO1zr+kiMXYudypnun0ZYehdqrCD4AACBr+Rt6bvWqtV1q7E39BjsXjB/v1HR9j2vO0KbmFpU4Rp0sITVeik+at0amrmlaVt+d7A+5+25to/bVS6NDzpGIkBovxW+Oi0PrHeu8tE0vHglp+qNPHDfyH2u0okUvuuZOuY/ZCkuD+swOcqn33Txu9epkwjydbTrUVyv1f5wwerJYzlHMkiM9CQ9BSP2Y4v0wp4T3OAVVN+IOSptqah2/Sbp+TdOq1fZYW7Zpe700/T9T9u9j+l37lBFUk5xbAACALOJj6AlroLFTSnIT6Jnr1zStkELrzBUe6N/vLh/a0mmFGZf1etLZNzveNr7dn1LvFncJUmu/Y/ssU9x0WJUTnfpdtBSwY1Alz/8wpcA7NeUYRUip7xYy13m/pjtzhoZltNAx7XhbQ321rjI7s+yvuOlc7AEd1jaJpWtmWZpVkuiwbr1KXOHKGo0r+X7ItZmr3C9Yrr3t0VAEAACQffwLPbc+0acT0nR7lXGjF72RT5yvsNTGhwalinr9wI/QVd/jKFOKvtJ9FLL7iXSxV1rlV16yRg1Gh8bs85/60+1CIcd2S9J3czGCpldSOaYdb8fX2QEoWfCJbmMFIEfwGT6ove1yXzN9xkiPLR5q9mvKUdoW5Sr3i77SKIkEAADwkn+hJzafxPG61KKS2I28uwwnPrl6acLQeHO5Ws3yMI9sqqmV+vcn3LCmZe0P9WyFe45P5kIKVZhlcRlIGCVItKm5RSX9HWpq7JRSeHiF9SjzeAnc8vWdzw/USPeYdvxYleYyQ/Fz9UnmpjlZx+wULbVz/l26A48dXJ3zrAAAALKcf6HHc+5SMGvCt/ObdMeT11wjTsvwZKokpUo1wWRP2ppPUHUjF9SoTu11fkaSsqeFBVXX26ISZ4lVWm2xrW1U25GQ67gS+m5to/bVT2l6zlEe4zypxz2CsGx9l3xEwxMpHFNCWZrdXuc8oIQnt23pVKjPcY3veM16mEKsfzsU6nM/tGPTcfuBDq59uduy6fik2urdT+mrSXauAQAAskQgEolEJCkQCMj+cdlcefgXcxHy0HizHWbMMrzhg6ppuOZ6kAG8FNZAdZV6N5jnZkxdfoZCAACQMzYWfcdclJZMM0sejfQgG8x077T+Ea0ZeJC9hj/WqDmvCgAAYAUh9MAT0dIr6/+7GPO1kCWSlDkGy+3RN8f/mQIAAFhhKG8DAAAA4AnK2wAAAABgGXgaegIKmIsAAAAA5AE/s4CnoWd1wNPdAQAAAMgSfmYBT/f8eKDIXAQAAAAgD/iZBTwNPcUFq7QmUGguBgAAAJDD1gQKVVywylzsGU9DjySVFqwm+AAAAAB5Yk2gUKUFq83FnvL0kdVOM7P39VXkoe5FZhWRd/sFAAAAsLwCCmh1oECPB4qWdIQn08ziW+gBAAAAgHRkmlk8L28DAAAAAC8RegAAAADkNEIPAAAAgJzm25weHmQAAAAA5Ka8f5DB/cisbs7e093II3MVAAAAgBwTfWT1qsDii8wyzSyL33OaCDwAAABA/rgbeaSbs/fMxZ7yNPTMzN4n8AAAAAB55m7kkWZm75uLPeNp6Pkq8tBcBAAAACAP+JkFPA099yKz5iIAAAAAecDPLOBp6OEpbQAAAEB+8jMLeBp6AAAAAMBrhB4AAAAAOY3QAwAAACCnEXqSGG8uV02wXF3D5hrkrrAGqsvV1B22fx9TV9D5OwAAAFYqn0OPdWNZY7yW/EZz+GDCPuKvnRq4Zb4hSwwfVE3woMbN5QAAAABS5nPosVT2TWooHH91NwXNTRZnx9vxz++rlVSrttj+zqlurXvzTcetdYd2uJcDAAAAWHmyIvQAAAAAwHIh9DjMdO+cp+zNmvPRNRwvyXP/7NzWLNtLr0Qt1o6GQUmDap2z9M9qk7NcL6PSwFu9ajLK/hLmMyVs4zgmu3zQfI91HGY/LiBhP/areSy+TUK5YpL+TWEb9/muUu+EsYGkUEjuPo61w+776l7NuN5hn3tne81jSngPAAAAllNWhJ7Rhuy4ISxuOmeVvF1qUYm50jba0KHQpUm11UujDfulPvvnoehN7pi6gvs1deRCrKTugyPX1JrkpnsusXYklOI5S//CGqiuUu+Gnnjp3qUWqb0qzeAzpq4tnQoZJYbu0r4xdTXK0Y4LaqwYVGv0XO14TY0Vzj6QpLD++NGUSo70JJQPzs1qi2J9d0GNFZLqezR0fJu1yfBB1TRcU+OleFvb6gfd/ZvCNjPdO7W3fb1xTNEPiBttqNKnz9vtudSikv79drgLqu5wrTTRrz86Q93wxxpVrdqi7b3Vqyajf9s2dGqvj9c5AABAvvE59GzTIceN9lC4R5UTWX5DWH84fhNf35Mw72emu0OjFS1qc8xLKm46rEoN6jNz9GQxhn+l3omQGpvtm2tJWtuotiMhTX/0Sdr95w4spm06NNKo4tjvQf3g+ZBjvR0A+j+OB49bn+jTiVrtS2d+1q0bmlJIzz4XfY+9ny9u2McT1kDHoPscSNp0vMfRv6lsM6bftU+psu9tbYpvklTJkQvxoLm2UfucAXfHa2qsmNKn5+Mhc3xoUCVHXot97vjxTk0b18mm5haVmGEJAAAAy8bn0GPapkN9Sb49X2kmOrXXVVq1X6PmNktivZ5MNooycU3T5rI5bdOhcI8q+/cnKeGKiz7GO/ra2z7l3mDHa2qsGNRJe5TJutn/8YKhwmVtmUJyhghrtEgbyhyBSyr5vjNwxU1NxcPHvNvY4Sq0zlybolgIs8LedPuvrLB3q1cn+52hzebs22C5arZ0pnF+AAAAsFhZFnqkmalrc9/MrxQVLfrANYJlvcxRoWVTsX7O8rzknCNudgByBJ+Z7p1q7XeX2X1wxAwV1qiMNco0ps/6jVGoNEy3V9kBwS7fi5aKLSAUWnhUKRQKxsLV1HVzbYqcIWzHj2MjSDPn+zVtjDBJdnlewvWQ+NRAAAAALI/sCj23etXaPuUqD4qJTUxPfW6MH4qfq1fJRKda05pXM4d161UyV1mcfbPdakyYb22fUuVhZylaurZpe725zGDvx1TcdFiVE51qre7QaLKb/wVESwNdgdEVeOxg1b7f9XCE8eb9Gq1o0Ys7Ut0mpJBrDpI9PyrJgwxchg+qNSHMbdOLR0Ia7dip1nYlBL1NNbVSbB4QAAAA/BCIRCIRSQoEArJ/XDZXHv7FvcCe5B0v9Qmp8dIc34APH7SfZlartvDCczHmNHxQNQ1K8hlz3/ha8zoUf3DA8W0aby5XqxJ/lpIdlzJutzXhPh4wXHNM7IcmOEvnKvvSHFFK1taKFn3gmsNj7qdWbX1Sa8d6Y7toezX3eZzXXOfA3XdmnyS2N5Vt3MdU2Tep7UPlOvn9aP8ma8tc59D+LOcDF5xi165DQnsAAABy38ai75iL0pJpZvE39CDnzHTv1N6P6jO6oR9vLlfrF2YYcDylLlmgyApW6FG6gRMAACDP+BV6squ8DSvb8EFrlKc3/cAzp1uf6NOJuR9M4L+wBqqtUR4CDwAAQHZipAeLFi8lm6c8MSVmGZ0l7ZI9TzjaOldZGwAAAFz8Gukh9AAAAADwhF+hh/I2AAAAADnN09ATUMBcBAAAACAP+JkFPA09qwOe7g4AAABAlvAzC3i658cDReYiAAAAAHnAzyzgaegpLlilNYFCczEAAACAHLYmUKjiglXmYs94GnokqbRgNcEHAAAAyBNrAoUqLVhtLvaUp4+sdpqZva+vIg91LzKriLzbLwAAAIDlFVBAqwMFejxQtKQjPJlmFt9CDwAAAACkI9PM4nl5GwAAAAB4idADAAAAIKcRegAAAADkNEIPAAAAgJxG6AEAAACQ0wg9AAAAAHIaoQcAAABATiP0AAAAAMhphB4AAAAAOY3QAwAAACCnEXoAAAAA5DRCDwAAAICcFgs9RUVFevDggXstAAAAAGSBBw8eqKioyFyckljoKS0t1cTEhHstAAAAAGSBiYkJlZaWmotTEgs927dv19mzZ91rAQAAACALnD17Vtu3bzcXpyQQiUQiknT58mX95Cc/0Y0bN/SNb3zD3A4AAAAAfPHgwQOVlZXp97//vZ555hlz9YJioUeSmpqa9OjRI/X09Li3AgAAAACf7N+/X4WFheru7jZXpcQVeiTpueeeU0lJiX7zm98w4gMAAADANw8ePNAvfvELTU9P6/z58+bqlCU8svr8+fMqLCxUWVmZ3nrrLV29epWnugEAAADwxIMHD3T16lW99dZbKisrU2Fh4aICj5KN9ERdvnxZv/3tb/XZZ5/p5s2bevjwobkJAAAAACypoqIilZaWavv27frZz36W0Rwe05yhBwAAAAByQUJ5GwAAAADkEkIPAAAAgJxG6AEAAACQ0wg9AAAAAHIaoQcAAABATiP0AAAAAMhphB4AAAAAOe3/AY8qVzrXxzMHAAAAAElFTkSuQmCC;" parent="1" vertex="1">
                    <mxGeometry x="40" y="198" width="139.71" height="99.94" as="geometry"/>
                </mxCell>
                <mxCell id="24" value="" style="edgeStyle=orthogonalEdgeStyle;html=1;endArrow=none;elbow=vertical;startArrow=block;startFill=1;strokeColor=#545B64;rounded=0;entryX=0.25;entryY=0;entryDx=0;entryDy=0;entryPerimeter=0;fontColor=#000000;labelBackgroundColor=none;exitX=0.75;exitY=0;exitDx=0;exitDy=0;exitPerimeter=0;" parent="1" source="2" target="5" edge="1">
                    <mxGeometry width="100" relative="1" as="geometry">
                        <mxPoint x="350" y="250" as="sourcePoint"/>
                        <mxPoint x="470" y="380" as="targetPoint"/>
                        <Array as="points">
                            <mxPoint x="339" y="250"/>
                            <mxPoint x="500" y="250"/>
                            <mxPoint x="500" y="280"/>
                        </Array>
                    </mxGeometry>
                </mxCell>
                <mxCell id="25" value="&lt;font color=&quot;#000000&quot;&gt;echo&lt;/font&gt;" style="edgeLabel;html=1;align=center;verticalAlign=middle;resizable=0;points=[];labelBackgroundColor=none;" parent="24" vertex="1" connectable="0">
                    <mxGeometry x="-0.114" relative="1" as="geometry">
                        <mxPoint x="4" y="-10" as="offset"/>
                    </mxGeometry>
                </mxCell>
                <mxCell id="28" value="" style="group" parent="1" vertex="1" connectable="0">
                    <mxGeometry x="40" y="360" width="140" height="80" as="geometry"/>
                </mxCell>
                <mxCell id="26" value="" style="shape=process;whiteSpace=wrap;html=1;backgroundOutline=1;labelBackgroundColor=none;fontColor=#000000;fillColor=#FFFFFF;strokeColor=#000000;" parent="28" vertex="1">
                    <mxGeometry width="140" height="80" as="geometry"/>
                </mxCell>
                <mxCell id="27" value="sendMessages.sh" style="text;html=1;strokeColor=none;fillColor=none;align=center;verticalAlign=middle;whiteSpace=wrap;rounded=0;labelBackgroundColor=none;fontColor=#000000;" parent="28" vertex="1">
                    <mxGeometry x="5.384615384615384" y="20" width="129.23076923076923" height="40" as="geometry"/>
                </mxCell>
                <mxCell id="29" value="" style="edgeStyle=orthogonalEdgeStyle;html=1;endArrow=none;elbow=vertical;startArrow=block;startFill=1;strokeColor=#545B64;rounded=0;labelBackgroundColor=none;fontColor=#000000;entryX=1;entryY=0.5;entryDx=0;entryDy=0;exitX=0;exitY=0.75;exitDx=0;exitDy=0;exitPerimeter=0;" parent="1" source="2" target="26" edge="1">
                    <mxGeometry width="100" relative="1" as="geometry">
                        <mxPoint x="170" y="350" as="sourcePoint"/>
                        <mxPoint x="270" y="350" as="targetPoint"/>
                    </mxGeometry>
                </mxCell>
            </root>
        </mxGraphModel>
    </diagram>
</mxfile>